<svg id="logo-lesgrandsvoisins" xmlns="http://www.w3.org/2000/svg" viewBox="0 0 571.8 126.8"><defs><style>.cls-1{fill:#fff;}.cls-2{fill:#335899;}.cls-3{fill:#fefefe;}.cls-4{fill:#335898;}.cls-5{fill:#34599a;}.cls-6{fill:#355999;}.cls-7{fill:#365a9a;}.cls-8{fill:#4264a0;}.cls-9{fill:#345899;}.cls-10{fill:#345999;}.cls-11{fill:#355a9a;}.cls-12{fill:#fdfdfe;}.cls-13{fill:#91b7d2;}.cls-14{fill:#345898;}.cls-15{fill:#35599a;}.cls-16{fill:#516ea4;}.cls-17{fill:#c0c2d4;}.cls-18{fill:#f9fafb;}.cls-19{fill:#375a9a;}.cls-20{fill:#375b9b;}.cls-21{fill:#102751;}.cls-22{fill:#385b9b;}.cls-23{fill:#365b9b;}.cls-24{fill:#85a2b2;}.cls-25{fill:#375b9a;}.cls-26{fill:#abcee1;}.cls-27{fill:#0f2650;}.cls-28{fill:#ebf1f4;}.cls-29{fill:#c1ccdd;}.cls-30{fill:#ebf3f5;}.cls-31{fill:#d8fbfc;}.cls-32{fill:#3a5c9b;}.cls-33{fill:#45629d;}.cls-34{fill:#4a669f;}.cls-35{fill:#9ab3cf;}.cls-36{fill:#9ca6c9;}.cls-37{fill:#e1e5ed;}.cls-38{fill:#edf3f7;}.cls-39{fill:#b6ccdc;}.cls-40{fill:#d2f5f9;}.cls-41{fill:#f3f7f9;}.cls-42{fill:#fcfcfd;}.cls-43{fill:#bdd0de;}.cls-44{fill:#e2e9ef;}.cls-45{fill:#f6f9f9;}.cls-46{fill:#afcddd;}.cls-47{fill:#fdfdfd;}.cls-48{fill:#6181ae;}.cls-49{fill:#fafbfc;}.cls-50{fill:#628fa5;}.cls-51{fill:#d1dee8;}</style></defs><title>lesgrandsvoisins</title><path class="cls-1" d="M468.9,35.9a21.2,21.2,0,0,1-2-1.2,2.4,2.4,0,0,1-.7-1.2c-.4-1.9,1.6-5.5,3.4-6.2,3.7-1.5,7.1-1.7,9.9,1.7a1.5,1.5,0,0,0,2,.6l2.8-.4c.3.4.8.8.6,1.2-4.7,12.9-2.5,26.4-3.2,39.6a14.6,14.6,0,0,1-.3,2.2c-.9,3.3-3.7,5.9-2.8,9.9s3.2,7.1,8.3,7.3,8.4-.2,11.4-4.4,4.8-3.8,7.7.1,3.9,4.6,7.8,4.5c8.1-.3,10.2-1.8,11.5-9.9.2-.8.3-1.6.5-2.3a10.8,10.8,0,0,1,1.1-3.6c3.8-5.3,2.5-10.4-.6-15.4-.6-4.9-3.4-8-7.7-10.1-2.2-5.7-1.5-7.3,4.2-8.6,3.6-.8,2.8-3.2,1.8-5.1s-2.8-4.6-5.8-4.1-5,3.2-5.9,6.1c-1.3,4.6-3.8,8.1-8.7,9.5a2.5,2.5,0,0,1-1.2-.8c-.6-5.7-3.8-9.2-8.8-11.7a8.4,8.4,0,0,1-4.1-4.4,5.2,5.2,0,0,1,1.7-1.6c.4-.2,1.2.2,1.7.5s3.5,3.2,6.2,3.2a1,1,0,0,1,.8.4c1.5,2.5,4.9,3.1,6,6,.1.3.8.4,1.2.4s.4-.4.5-.6a19.3,19.3,0,0,0,.1-2.4,3.3,3.3,0,0,1,1.5-2.9c2.5-1.7,4.6-3.9,7.5-5.1a7.7,7.7,0,0,1,8.6,2c.4.5.6,1.2,1,1.6,3.4,3.2,2.9,6.8,1.6,10.6a2.9,2.9,0,0,1-2.3,2.2l-1.9.4c-1.3.5-1.5,1.7-.5,2.5l1.5,1.2c2.3,2.1,4.3,4.3,4.2,7.7a2.7,2.7,0,0,0,1.8,2.6c1.7.9,2,2.3,2,4-.1,3.4-.1,6.8,0,10.1a5.6,5.6,0,0,1-1.9,4.7c-1.3,1.1-2.3,2.3-1.3,4.1-.7,2.9-.8,6.1-3.4,8.2a5.5,5.5,0,0,0-1.6,1.8c-1.2,2.9-3.8,3.2-6.3,3.6a25.1,25.1,0,0,1-6.7,0,9.7,9.7,0,0,1-6.3-2.9,13,13,0,0,0-2.3-1.8c-1.7-1-2.2-1-3.8.4-5.8,5.3-12.6,5.1-19.7,3.4l-.9-.3c-1.2-.4-1.3-2.5-2.9-2.1s-2.1,1.3-3.3,1.8-4,1.6-6.4.7-3.2-2.6-4-4.5c-.2-.4-.3-.9-.5-1.4a.8.8,0,0,0-.8-.3.9.9,0,0,0-.7.5c-2,5.5-2.1,5.6-7.7,5.6H442.7c-3.5,0-5.2-1.3-6.2-4.7s-1-4.6-1.5-7c-1.6,1.1-1.5,2.8-1.6,4.4s-.6,3.3-3.5,3.4a8.1,8.1,0,0,0-5.5,2.3c-2.5,2.4-5.6,1.9-8.6,1.2a4.2,4.2,0,0,1-2.1-1.9,16.4,16.4,0,0,1-1.4-3c-.5-1-1.2-1.3-1.7-.5s-2.8,2.1-4.6,2a19.3,19.3,0,0,0-3.4,0c-2.2.1-3.9-.4-5.1-2.6s-2.3-1.5-3.7.3a15.8,15.8,0,0,0-1.2,1.5c-1.5,3.4-4.5,4.3-7.8,4.6s-5.4,0-8.1.7a6.3,6.3,0,0,1-5.6-2.1,101.3,101.3,0,0,1-6.8-7.9,8.8,8.8,0,0,1-1.7-5.3c.3-2.9.2-6.2,2.7-8.4,2.7.8,3,2.9,2.7,5.2-.6,4.9,1.5,8.4,5.4,11.1,1.1,2.9,3.6,2.6,6,2.6,8.7.1,10.8-1.1,11.6-10.4a8.8,8.8,0,0,1,.6-2.8,47.3,47.3,0,0,0,3.1-6.4c.5-1.5,1.1-3.1,3.2-2.7s2,2.2,2.1,3.7a14.1,14.1,0,0,1-1,6.5c-.9,2.2-.8,4,1,5.6s3.3,2.8,5.7,2.6c.7.1.7.1.4-1.4.2-3.3,0-6.7.3-10s.7-4,3.1-4,2.6,1.9,3,3.6-.5,6.6,2.7,8.8c1,1.1,1.1,2.5,1.2,4,.5,3,2.6,4,5,1.9a10.4,10.4,0,0,1,5.7-2.9c3.5-.4,1.6-3.9,3-5.6s3.2-4.8,4.7-7.2a3.2,3.2,0,0,1,3.6-1.7c1.7.5,1.1,2,1.4,3.2,1.1,4.2-.3,8.5,1.2,12.7.6,2.2,2,3.1,4.3,2.7a6.3,6.3,0,0,1,1.9-.3c9-.9,9-.9,9-10.2a73,73,0,0,1,.1-8.1c.4-2.6,1.3-4.8,4.7-3.4a4,4,0,0,1,1,1.2c.9,2.9.4,5.9.5,8.8s.2,4.1,2.4,5.2a4.4,4.4,0,0,1,.8,1.1c.1.6-.1-.2.2.4s-.6,5.5,3.3,5.2,2.3-3.7,2.7-6a6.8,6.8,0,0,1,.2-1.4c.6-4.4-.1-9,2.8-12.9.6-.7.4-1.9.3-2.8-.9-8.6.7-17.2.3-25.7a5.9,5.9,0,0,1,.2-1.4,6.4,6.4,0,0,0,.3-4.9c-.1-.4-.3-.8-.4-1.2-3.2-3.4-4.3-3.3-5.6.7A3.3,3.3,0,0,1,468.9,35.9Z" transform="translate(-258.8 -21.5)"/><path class="cls-1" d="M288.5,144.4c-.7-.1-1.4.1-1.9-.2s-3.5-.8-4.7,1.4a4,4,0,0,1-3.7,1.7c-3.7-.1-7.3,0-11,0a6.3,6.3,0,0,1-1.9-.3c-1.1-.3-5.5-6.1-5.6-7.3a2.9,2.9,0,0,1,1.9-3c3.8,4.8,8.2,7.9,14.8,5.9a7.1,7.1,0,0,0,3.2-1.7c3-2.9,6.6-2.9,10.1-1.1,5.6,2.7,5.6,2.8,9.7-1.7.7-.7,1.2-1.6,2.1-1.9,2.8-.5,3.3,1.4,3.6,3.4s.6,2.4,2.3,2.4,2.1-1.3,2.5-2.5.1-4.8.5-7.1,1-4.5,3.6-4.3,2.5,2.5,2.6,4.4,0,5.1.1,7.7.6,2.5,2.5,2.6,2.5-.8,2.5-2.5-.1-5.4.2-8.1.6-4,3.2-3.9,2.8,1.8,3,3.7,0,2.2.1,3.3c0,6.8,0,6.8,6.5,7.3s7.2-1.8,7.1-6.8a18.9,18.9,0,0,0-.5-2.3c-.6-2.4-.4-4.8,2.6-5.2s3.2,1.9,3.4,4.1v1.9c-.1.5-.1.9-.2,1.3s-.9,2.2-.5,3.5l.3,1.1c.2.8.4,1.6.5,2.3s.7-.1,1,.2a4,4,0,0,0,4-3.9c.2-1.3.2-2.6.5-3.8s1.3-2.7,3-2.7,2.9,1.2,3.2,2.9.3,4.1,1.7,5.9,3,1.6,3.5-1.1l.4-1.3c.9-2.1.3-6.4,4.7-3.1a5.6,5.6,0,0,1,.5.8c1.1,2.2-.9,5.6,1.9,6.8s4.7.2,7.1-.1c4.3-.6,8.6.2,12.9-.1,1.9-.1,3-.6,3.2-2.6l.5-1.2c3.7-3.3,3.7-7.7,3.5-12.1a5,5,0,0,1,.5-1.3,5.2,5.2,0,0,1,1.1-1l1.4-.4c3.6.7,2.6,3.6,2.9,5.9a11.8,11.8,0,0,1-.4,2,7.2,7.2,0,0,0-.3,4.8l.3,1.2a33.4,33.4,0,0,1,.5,4.3.8.8,0,0,1-.7.8c.6.1,1.1-.4,1.7-.2,2.8.6,3.9-.9,4-3.3a149.3,149.3,0,0,0,0-17.7c-.4-5.8-5.2-7.4-10.2-4.7a13.8,13.8,0,0,1-14.4,0c.4-2.2,2.1-2.6,3.9-2.8a38.5,38.5,0,0,1,4.8-.1,7.1,7.1,0,0,0,5.2-1.7c2.5-1.9,5.3-2.7,8.5-1.2a5.3,5.3,0,0,1,2.6,1.9,8.1,8.1,0,0,0,2.4,2.1,1.7,1.7,0,0,0,1.7-.1,35.8,35.8,0,0,0,2.8-2.6c2.2-1.9,3.2-1.7,5.6.7-2.4,2.3-6.5,3.2-6.8,7.5a22.4,22.4,0,0,1-.1,10.3,6.2,6.2,0,0,0,.1,3.8c.9,4.3,4.3,4.4,7.5,4.3s5.7-.3,8.6-.6,4.2.1,5.1,2.5-.6,1.8-1.8,1.9c-3,.2-6.1-.3-9,.8a1.2,1.2,0,0,1-1-.1c-3.2-1.4-6.6-.2-9.9-.9-1-.3-1.4.5-1.9,1.1-1.8,2.3-4.3,3.1-7.2,3s-3.9-.9-4.7-3.7c-.3-.9-.7-1.7-1.2-2.9-.8,1.6-1.3,2.8-1.8,3.9a4.9,4.9,0,0,1-4.7,2.7c-4-.1-8,0-12,0-1.1,0-2.3-.3-3.3.1-3.4,1.2-6.6-.1-9.8-.6-.9-.2-2.1-.6-2.8-.3-3.6,1.7-6.1.3-8.4-2.3a1.3,1.3,0,0,0-2.1.2,5.6,5.6,0,0,1-.5.8,4.7,4.7,0,0,1-4.6,2.1h-.5c-2.2.2-4.4-.6-6.6-.8s-4.4.8-6.5.7a53.2,53.2,0,0,1-8.9-1.4,5,5,0,0,0-3.6.5,10.6,10.6,0,0,1-9.2.2c-1-.3-1.6-.6-2.6,0s-4.7.9-7,.5a9.8,9.8,0,0,1-3.3-1.8c-.6-.4-1.2-1.3-1.8-1.3s-1.3.8-1.9,1.3C295.1,148.3,292.1,148.1,288.5,144.4Z" transform="translate(-258.8 -21.5)"/><path class="cls-2" d="M737.8,56.1l.2-.3v-.3c.8-2.2,0-5,2-6.9h0c.1-1.5.3-3,1.7-3.9h0c1.7-5.6,5.6-9.5,10.1-12.9,2.2-1.7,5.1-2.4,7.5-.6s4.3,3.9,3.4,7.3-1.4,5.3-4.4,5.6-2.5-3-3.4-5.2a24,24,0,0,0-7.6,11.3,54.9,54.9,0,0,0-3.3,21.6c.2,2.6.5,5.3,3.5,6.3s4.2-1.7,6.1-3.3c5.6-4.3,6.2-10.5,7.3-16.7s4.1-13.1,9.3-18c3.3-3,6.1-2.5,8.7,1,9.8,13.1,7,26.5,1,39.9h0c-.7,2.2-1.2,4.7-3.8,5.7h0c-4.6,5.1-11.2,1.1-14.7-3.3a6.4,6.4,0,0,1-1.4-3.5,5.7,5.7,0,0,1,.6-2.4c-.9.6-.5,2-.8,3-3.8,6.7-10,6.6-16.3,5.6s-6.5-5.9-7.5-9.6A29.2,29.2,0,0,1,737.8,56.1Z" transform="translate(-258.8 -21.5)"/><path class="cls-3" d="M779.8,80.9a11.6,11.6,0,0,1,.4-1.8c3.4-9,3.9-18.4,2.8-27.8-.3-3-1.2-5.6-3.7-7.5a4.7,4.7,0,0,1-1.3-2.4c-1.1-2.7-3.6-3.5-5.8-1.9a16.2,16.2,0,0,0-3.7,3.7,37.8,37.8,0,0,0-6.7,15.7c-.6,3.3-.9,6.6-1.2,10-.1,1.3-.2,2.5-2,2.5s-2.5,1.3-3.3,2.6-1,2-1.6,2.9a6.3,6.3,0,0,1-8.7,2,3.5,3.5,0,0,1-1.2-1.5,27.1,27.1,0,0,1-1.2-5.5,59.2,59.2,0,0,1,3.1-21.7,28,28,0,0,1,9.4-13.6,2.5,2.5,0,0,1,1.7-.2c.2,0,.4.8.5,1.2a5.8,5.8,0,0,1-.3,1.9c-.1.8-.6,1.6-.6,2.3a2,2,0,0,0,1,1.5,1.8,1.8,0,0,0,1.7-.3c2.3-1.9,3.2-6.7,1.9-9.3a5.1,5.1,0,0,0-6.6-2.3,16.7,16.7,0,0,0-4,2.5,30.2,30.2,0,0,0-7.1,8.4c-.5.8-1.1,1.5-1.7,2.3-.5-2.4,1.4-4.6.7-7a2.7,2.7,0,0,1,1.1-.6c.6-.1,1.6.2,1.7,0,1.3-2.9,5.2-4,4.8-7.8h4.8c2.7-.1,5.5-.3,6.9,2.9.2.5,1,.7,1.5.9a2.1,2.1,0,0,1,1.5,2.2c0,1.1,0,2.3.1,3.4a2.1,2.1,0,0,0,3.4,1.7,8.6,8.6,0,0,0,1.3-1.4,5,5,0,0,1,6-1.5c1.8.6,3.5.8,4.3,3.1s2,1.8,3,2.7c1.7-1.3,1.4-2.9,1.8-4.4s.6-1.8,1.9-1.6a6.1,6.1,0,0,0,1.9-.1c2.8-.3,2.9-.2,3.2,3.1a.7.7,0,0,1,.1.5l-.7.4c-3.1.9-2.8,3.5-2.8,5.9.2,13-.7,26.1.9,39.1a2.5,2.5,0,0,1-.4.7c-4-.3-4.3-.6-4.8-4.8-.1-.9.2-2-.8-2.5s-1.9.8-2.8,1.2Z" transform="translate(-258.8 -21.5)"/><path class="cls-1" d="M306.7,29.2a3.2,3.2,0,0,1,3.5-1.9,2.9,2.9,0,0,0,2.9-1.4c1.2-2.6,3.7-2.9,6-3.4s6,.5,8.9,1.2a2.7,2.7,0,0,1,1.4,1.2c1.2,1.6,2.3,3.4,3.5,5.1a4.5,4.5,0,0,1,.3,4.6,8.5,8.5,0,0,0,0,7.3,2.5,2.5,0,0,1,.1,1.9c-1.6,2.9.5,5.6.5,8.4,0,.7.9,1.7,1.6,2.3s2.1,3.3,2.1,5.5c-.1,4.2-.1,8.3,0,12.5,0,2-.3,3.8-1.9,5.1a6.1,6.1,0,0,0-2.1,4.2,4.5,4.5,0,0,1-2.8,3.6,4.6,4.6,0,0,0-1.7.9c-2.4,3-6,2.5-9.2,3.3a6.1,6.1,0,0,1-4.5-.9,5.2,5.2,0,0,0-5.5-.1c-1.1.6-2.4.8-3.5,1.4s-4.7.2-6.8-.9c-.3-.2-.3-.9-.5-1.3s.8-1.7,1.6-1.6c4.7,0,8.5-2.9,12.9-3.9a2.8,2.8,0,0,1,1.3.4c4,4.1,7.7,3.7,11.7-.1,6.1-5.7,6.9-12.8,6.8-20.4,0-2.1-1.4-3.1-2.6-4.3a7.5,7.5,0,0,1-.7-1.2c.1-5.1-2.7-7.4-7.6-7.7a1.8,1.8,0,0,1-.8-1.1,3.9,3.9,0,0,1,2.7-4.1c4.5-1.6,5.2-4.6,4.7-9-.3-2.5-.3-4.5-2.3-6.3a6.4,6.4,0,0,0-9,0c-3.4,3-5.6,6.4-5,11.2a24.4,24.4,0,0,1,.1,3.8v2.8a20.9,20.9,0,0,0,.4,5.6c.5,2,1.1,3.7,3.6,3.4s4.2,1.9,6.2,3.1a2.5,2.5,0,0,1,.8,1.2,17.2,17.2,0,0,1,.5,9.3c-.6,2.4-1.8,3.6-4.2,3.6l-1.4-.2a4.4,4.4,0,0,0-3.2.1l-1.3.4c-2.6,3.3-6.1,4-10.1,3.8s-5.3-1.6-5.7-5.1.7-8.1,4.1-8.9,3.4-.6,3.5-3-1.9-2.1-3.3-2.3-3.8-1.7-3.9-4.1c0-4-.4-8-.1-12,.1-2.2.9-3.8,3.4-4.5C307.7,35.2,307.7,35.1,306.7,29.2Z" transform="translate(-258.8 -21.5)"/><path class="cls-4" d="M653.3,53.2c0-.5.1-1,.1-1.6a55.4,55.4,0,0,0,0-14.1v-.3c1.6-3.3,3.8-3.5,5.8,0s3.9,7.3,4.5,11.5a34.5,34.5,0,0,0,1,5.6h-.1a37.9,37.9,0,0,1,4.6,10.3c-.1-8.9.9-16.7.5-24.6a9.3,9.3,0,0,1,1.4-5.9c1.6-2.5,3.6-3.9,6-.7V33l-.2.3a4.2,4.2,0,0,1,1.5,4.3c-1.5,14.2-.4,28.4-.7,42.7-.1.6,0-.2-.1.4,0,5.1-1.7,8.5-4.5,8.4s-5.7-3.6-6.9-7c-.7-1.6-.8-3.4-1.4-5.1h.1c-3.1-3.6-3.7-8.3-5.7-12.4.6,8.2-1.6,16-2.4,23.9h0a2.1,2.1,0,0,1-1.9,1.9h.1c-3.7,1.1-5.3-1.3-5-4.1C651,75.2,650.1,64,653.3,53.2Z" transform="translate(-258.8 -21.5)"/><path class="cls-3" d="M457.4,107.9c0-2.5,0-5,.1-7.4s.6-2,2-2.1h3.7c3.9-.4,3.7,2.5,3.5,4.8a13.7,13.7,0,0,1-1.6,5.8,8.8,8.8,0,0,0,2,.9c1.3.1,2.5,0,3.8,0,1.6-2.2,1.7-5.6,5.3-6a1.4,1.4,0,0,1,1,.7c.7,1.6-.4,3.1-.5,5.1,1.9-1.4,1.7-4.2,4-4.8,2.7,4.5.7,8.9-5,10.9,5.5-.5,8.5,3.6,12.6,5.8.4,6.5-2.2,11.4-8,14.4-2.4,1.2-4.8,1.1-6.4-1.3s.6-3.7,2.3-4.9a10.8,10.8,0,0,0,4.2-5c.5-1.5.5-2.9-.8-4a3.8,3.8,0,0,0-4.1-.3c-5.3,2.5-7.9,10.7-4.9,15.8s6.7,5,11.2,2.1,5-2.1,7,1.2,4.7,3.3,7.6,2.2a5.9,5.9,0,0,0,3.9-6.5c-.3-4.5-1.8-9,.6-13.5.8-1.4-.3-3.1-1.8-4s-3.6-.6-5.4.4-2.8,4.2-5.9,2.9c-1.5-3.1.8-4.8,2.7-6.3s7-2.5,10.4-1.4,4.4,4.9,4.1,8c-.6,5.3,0,10.5-.2,15.7s-2.3,8.5-8.8,8.6c-3.8.1-7.8.7-11-2.1-1-.9-2-.6-3,.2-3.9,2.8-7.5,2-10.7-1.2s-4.1-3.8-7.1-1.1a3.9,3.9,0,0,1-5.3-.4c-2-1.7-3.2-3.6-1.7-6.3,2.3-.8,2.8,3.5,4.7,2s.4-4.2.2-6.3-.2-2.9-.2-4.3c-.1-9.5-.1-9.5,7.8-13.9-8.4,1.5-7.5-5.1-9.4-9.7.6,6-3,11.2-1.9,17.3a26,26,0,0,1-.5,13.8c-.9.8-2.3,1.2-2.8,2.4-2.7,6.3-7.8,6.4-13.4,5.2a1.4,1.4,0,0,1-.9-1.1c1.1-3,2.2-5.9,6.5-4,1.9.9,2.7-.5,2.6-2.2a54.3,54.3,0,0,1,.1-11.4c.2-1.6-.1-3.7-2.1-3.6s-1.6,2.1-1.7,3.4c-.3,3.5-.8,7-2.8,10-.9,1.3-2,2.8-3.8,2.4s-2.3-2.2-2.4-3.8a51.5,51.5,0,0,1,.2-12.4,2.3,2.3,0,0,1,.6-1.2c4.2-1.6,7.9-5,12.9-3.6,1.4.4,1.6-.8,2-1.6S456,109.4,457.4,107.9Z" transform="translate(-258.8 -21.5)"/><path class="cls-1" d="M365.3,65.7a3.2,3.2,0,0,1-1.9-3.1v-9a4.5,4.5,0,0,1,1.2-3.1c2.1-2.2,2.6-4.9,2.6-7.9,0-1.1.1-2.2,0-3.3a4.2,4.2,0,0,1,2.5-4.7,5.6,5.6,0,0,0,2.2-2.4,9.7,9.7,0,0,1,4.2-4.5,8.3,8.3,0,0,0,3-2.9c2-3.1,9.3-3.3,11.5-.2s3,2.8,4.5,4.1,1.5,1.2,3.4-.3a5.5,5.5,0,0,1,2.5-1c1.1-.2,1.6.7,1.7,1.8a1.8,1.8,0,0,1-1.2,1.2c-1,.6.1,1.4-.2,2.1.1,8.1-.3,16.2-.2,24.2,0,3-1.7,4.4-4.5,4.5s-7-.1-10.5.1-4.9,1.7-3.7,5.2c.6,1.9,1.8,3.7,2.4,5.7s-1,5.2-3,6.9-3.9,1.1-5.5-.8a4.4,4.4,0,0,1-.6-1.6c-.4-8-.2-16.1-.2-24.2l.3-1.5c2-3.3,3.9-6.5,4.4-10.7s3.8-5.3,8.1-2.9l.9,1c2.1,1.9,3.3.3,4.5-1.2s.9-2.8-.5-4.1-2-2.3-3.5-3l-1.1-.8c-1.8-2.8-3.6-3.2-5.6-.1l-1.1.8c-5.5,1.2-10.4,6.7-11.2,12.4-.4,3-.2,6-.6,9a6.9,6.9,0,0,1-.5,1.3c-1.6,2.6-3.4,5.2-2.8,8.7A4.7,4.7,0,0,1,365.3,65.7Z" transform="translate(-258.8 -21.5)"/><path class="cls-3" d="M346.2,135.9c-.1-1.7-.1-3.5-.2-5.2a1.6,1.6,0,0,0-1.6-1.5c-.8-.1-1.7,0-1.9.9s-.6,2.1-.2,2.6c1.5,2.2,1,4.3.2,6.4s-.7,2.1-1.1,3.1a3.1,3.1,0,0,1-3.9,2.1c-3.3-1-6.7,0-10.3-.5l-.3-10.9c-.1-.8-.1-1.6-.2-2.4a1.5,1.5,0,0,0-1.7-1.3c-.9,0-1.6.3-1.8,1.2s-.1,2.2-.2,3.3c0,2.9.1,5.8,0,8.7s-.8,2-2.2,1.9-1.5-.3-2.3-.3c-3.1-.1-3.1-.1-3.1-3.1s0-6.1-.1-9.1a5.9,5.9,0,0,0-.4-2.3,1.1,1.1,0,0,0-1.9-.4,3.8,3.8,0,0,0-1.5,2.9c0,1.7.1,3.5,0,5.2a15,15,0,0,1-.9,4.2c-1.6,3.5-1.6,2.9-5.1,1.8a2.5,2.5,0,0,1-1.6-2.3,12.8,12.8,0,0,0-.1-1.9c-.2-1.8-.2-1.8-2.8-2.2l-.5-.6c-.5-2.3.8-4.3,1-6.5.9-7.6-.2-9.4-7.1-11.9-.7-2.4.1-3.8,2.7-4.1H299c2.2.9,4.1,1.8,6.4-.3s3.2-.8,4.8.1l1.1.8c1.5,1.4,2.9.2,4.2-.4s2.8-.9,3.8.6a2.4,2.4,0,0,1-.6,3.6c-1.4.7-3.1.9-4.4,1.9s-4.3,2-6.4-.8c-2.1,5.8-1.9,11.3-1.7,16.9.1.9.3,2.1,1.4,2.1s1.4-1.1,1.6-2,.1-3.2.2-4.8a9.1,9.1,0,0,1,1.6-4.5c1.2-1.7,2.5-4,4.7-3.5s1.7,3.4,1.9,5.3-.2,5.8.2,8.7c.1.7.4,1.6,1.3,1.7s1.3-.9,1.5-1.7a18.5,18.5,0,0,0,.2-4.7c-.2-3.9,1.7-6.8,4.2-9.4.9-.9,2-1.8,3.3-1.3s1.5,2,1.6,3.3c.2,2.9-.9,5.7-.8,8.6s-.1,3.1,1.9,5c.5-7.6,2.8-14.6-1.5-21.2l2.2-.2a18.8,18.8,0,0,1,11.5,0h10.6c1.9-1.1,3.8-1.4,5.7,0h3.9a9.3,9.3,0,0,0,7.1-.5c3.2-1.6,7.1-.3,10.3,2a3.3,3.3,0,0,1,.7,1.3c1.1,4.9-.4,9.4-2.2,13.9-.6,1.5-1.6,3-3.5,2.8s-2-2.3-2.2-3.8c-.4-3.3.6-6.9-1.2-10.7-3.1,4.3-.9,9-2.8,12.9l-.6.5c-2.4-1.1-2.4-1.1-2.7,1.1a5.9,5.9,0,0,1-.2,1.4c-.2.4-.7.7-1,1-1.9-3.2-1-6.5-.7-9.8.7-7.6-2.9-10.5-9.9-7.8-1.8.7-2.9.3-4.4-.5-4.5-2.6-11.8.9-12.6,5.9a32.1,32.1,0,0,0,0,13.8c2.1-2.3,1.6-4.6,1.5-6.7a11.9,11.9,0,0,1,4.9-9.9c2.2-1.8,4.1-1.6,4.1,1.5S350,133.2,346.2,135.9Z" transform="translate(-258.8 -21.5)"/><path class="cls-3" d="M601.6,85.5c-1,.1-1.9-.1-2-1.4s0-5.4-.1-8.1a14.1,14.1,0,0,0-.1-2.9,2.8,2.8,0,0,0-1-1.4,1.8,1.8,0,0,0-2.3,1.2c-.4,2-1.2,4-.6,6.1s.3,1.2.5,1.8a1.5,1.5,0,0,1-1,1.9c-1.7.3-2.3,1.5-3,2.8a2.6,2.6,0,0,1-2.4,1.3l-7.1-.4c-.4,0-.8-.4-1.2-.6a12.1,12.1,0,0,0-2.5-2.1c-1.9-.9-2.7-2.2-2.2-4.2s-.3-4.4-.2-6.6a42.8,42.8,0,0,0,0-6.2c0-1.6-.8-2-2.1-1.1a8.3,8.3,0,0,0-1.5,1.1l-.6-.5c-1-1.9-.3-3.7.2-5.6,2-7.4,3.3-14.9,5-22.4a7.1,7.1,0,0,0,.2-2.9c-.1-.8-.4-1.6-1.3-1.8s-1.4.6-1.8,1.3-1.2,4.3-1.6,6.4c-1.3,7.1-1.9,14.3-5.7,20.7a1.7,1.7,0,0,1-1.4.1,5.4,5.4,0,0,1-1.9-3.7c-.7-6.6-3.7-12.8-3.8-19.6-.1-1.1-.4-2.5-1.8-2.4s-1.5,1.7-1.4,2.9.7,4.7,1.2,7.1.7,3.8-.4,5.6l-.5.4a6.3,6.3,0,0,1-3.5-7.1,11,11,0,0,0,.1-5.1c-.4-2.1-.1-4.3-.1-6.6a15,15,0,0,1,8.7.4,3.3,3.3,0,0,1,2.6,3.5c-.1,3.7,0,7.4,0,11.1a4.3,4.3,0,0,0,1.5,3.8c.7.4,1.8.2,2-.6l.3-2.4c.2-2.7-.4-5.4.6-8a1.7,1.7,0,0,0,0-1c-1.4-2.9.1-4.8,2.1-6.7a8,8,0,0,0,1.3-1.9c2.1-2.8,2.7-2.9,6.6-1.5h0l.9,3.5c.2.6.2,1.2.4,1.8s2.3,1.7,3.1.7,1.6-2.3,3.3-2.1a3.4,3.4,0,0,1-.5,2.8c-5.3,8.5-7.1,18-7.6,27.8a29.9,29.9,0,0,0,3.1,15.8c.9,1.9,2.4,3.5,4.7,3.4s3.1-2,3.9-3.7c5.3-11.3,6.3-23.3,5.4-35.6-.4-5.5-5.1-7.7-8.9-10.5,1-1.7,2.8-.9,4.2-1.1s3.8.2,4.4,2.6a1.6,1.6,0,0,0,.8,1c1.7.4,2.6,1.6,3.5,3s1.2,1,2.5-.2l.8-.6c1.7,1.8,1.5,4.1,1.3,6.3-.9,12-1.8,23.9-1.8,35.9C602.9,82.6,602.8,84.2,601.6,85.5Z" transform="translate(-258.8 -21.5)"/><path class="cls-2" d="M699.3,73.7v.2c.1,6.8-3.3,11-9.2,13.6s-8.3.8-10.2-3.8a18,18,0,0,1-.6-13.1c.7-2.1,2-3.8,4.5-3.6s3.1,2.4,3.3,4.5-.2,3.9.6,5.7c4.7-2.8,4-11.5-1.3-15-3.3-2.1-6-4.7-6.2-8.6a31.2,31.2,0,0,1,2.9-15.3c.4-.7,1.2-1.2,1.4-2,1.1-3.7,3.3-6.2,7.5-5.8s6.5,4.6,6.9,9.1a3.3,3.3,0,0,0,.4,1.4v2.3c-1,3.5.1,7.2-1.2,10.7-.9,1.5-2.3,2.3-4,1.4s-1.5-2.3-1.3-3.7a33.5,33.5,0,0,0,.2-10,1.9,1.9,0,0,0-.9-1.5c-4.2,4.3-4,11.3.4,14.9a16.2,16.2,0,0,1,3.7,3.7c2.4,2.8,2.5,6.3,2.7,9.8C699,70.3,698.6,72,699.3,73.7Z" transform="translate(-258.8 -21.5)"/><path class="cls-3" d="M699.3,41l-.8-2.3a19.9,19.9,0,0,0-.9-2.6c-1.3-2.6-3.2-4.6-6.2-4.8s-4.6,2-5.9,4.3a23.5,23.5,0,0,0-2.3,5.7,77.8,77.8,0,0,0-1.8,9.4c-.5,4.6,1,8.3,5.5,10.1a6.9,6.9,0,0,1,4.2,4.9,63.3,63.3,0,0,1,1.2,7.6c.2,3.2-1.5,5.4-4.6,6.5a1.9,1.9,0,0,1-1.4-.7c-.2-1.9-.3-3.8-.4-5.8s.2-2.2.1-3.3a2.3,2.3,0,0,0-1.7-2.1,2.5,2.5,0,0,0-2.7.6,5.8,5.8,0,0,0-1.4,2.4,22.5,22.5,0,0,0,.5,11.8,8.4,8.4,0,0,0,1.9,3.3,4.3,4.3,0,0,0,4.8,1.4,20.8,20.8,0,0,0,8.5-5.2,9.7,9.7,0,0,0,2.6-5c.2-1.1.5-2.2.8-3.3v.5c.2,7,.2,7-4.2,12a6.4,6.4,0,0,1-1.9,1.3,34.7,34.7,0,0,0-3.3,1.8c-2.5,1.6-4.2,1.6-6.4-.4l-1.4-1.3a3.5,3.5,0,0,0-5.1,0,8.1,8.1,0,0,1-3,2.2c-2.1.8-3.6.8-5-1.2s-3.4-1.8-3.9-3.2-.3-4.1-.3-6.2.1-1.6.1-2.4c1.1,2.2,2.1,4.3,3.2,6.4a17.7,17.7,0,0,0,2.6,3.9,3.3,3.3,0,0,0,5.6-1.6,25.8,25.8,0,0,0,.3-4.8c0-11-.2-21.9-.2-32.9.1-3.2.5-6.4.7-9.5a44.7,44.7,0,0,0-.1-5.2c1.6-.3,2.9-.3,3.2,1.7a3.1,3.1,0,0,0,.6,1.3c.6.8,2.5.5,2.9-.3a3,3,0,0,0,.2-1,4.8,4.8,0,0,1,1.9-4.1,8.1,8.1,0,0,1,5.8-1.7l2.8.5a2.9,2.9,0,0,1,1.2.7c1.2,1.7,2.4,3.3,3.5,5.1a5.9,5.9,0,0,1,.5,2.7A14.1,14.1,0,0,1,699.3,41Z" transform="translate(-258.8 -21.5)"/><path class="cls-1" d="M488.3,121.4a7.7,7.7,0,0,0-1.5.2,2.5,2.5,0,0,1-3.4-1.6c-.6-2.1-2-2.5-3.9-2.5a23.8,23.8,0,0,1-3.8-.1,3.7,3.7,0,0,1-1.9-1.1,1.4,1.4,0,0,1,.5-2.3,6.7,6.7,0,0,1,4.2-.5q2,.4,1.5-1.5c-.5-1.9.5-3.4,1-5s.2-1.5-.7-2a2.1,2.1,0,0,1-.6-1,5.5,5.5,0,0,1-.2-1.8c2.7-1.4,3.7-1.1,4,1.3a9.6,9.6,0,0,1,0,2.4c0,2.5-.1,5.1-.1,7.6a1.8,1.8,0,0,0,1.1,1.9c1,.3,2.1,1.1,3.2.1s2.7-2.8,4.4-3.5,3.4-.2,5.1-.2h2.9c3-.3,4.8,1.3,5.8,3.9s1.6,3.9.6,6a3.1,3.1,0,0,0-.1,1.9c1,2.8,0,5.6,0,8.5v8.1a18.8,18.8,0,0,1-.5,3.3,4.8,4.8,0,0,1-3.2,3.3c-3.7,1-7.3,2.4-11.2.9-1.8-.7-3.7-.7-5.5-1.3s-3.4-.9-5,.2-5.6.1-8.4.4c-.4.1-.9-.4-1.2-.7a22.5,22.5,0,0,1-1.2-2.1,2.3,2.3,0,0,0-3.1-1.4,21.2,21.2,0,0,1-10.9.2h-1.4c-4.1,1.1-8.2.3-12.4.5a1.8,1.8,0,0,1-2.2-1.9,1.1,1.1,0,0,1,.9-.9,44.7,44.7,0,0,0,5.2-.1c1.4-.1,2.8-.5,4.2-.7a2.8,2.8,0,0,0,2.3-2,18.1,18.1,0,0,1,1.6-3.5c.7-1.3.7-1.3,3-.5l.3.4-.2.4c-.1,1.7-.2,3.4,1.2,4.9s4.2,2.2,6.3.4c.3-.2.4-.7.6-1.2.9-2.2,1.6-2.2,3.2-.5a26.1,26.1,0,0,0,5.3,5.2c1.3.9,3.3.7,5,.8s1-.6,1.5-1.1,1.2-1.4,2-2a1.9,1.9,0,0,1,1.3-.1,1,1,0,0,1,.8.5c2,2.8,4.9,3.2,8.1,2.9H498a5,5,0,0,0,5.5-5.3c-.1-4-.3-7.9-.4-11.9a8.5,8.5,0,0,1,.4-3.2c1.5-3.2-.3-5.9-1.4-8.6-.3-.8-1.7-1.4-2.7-1.6-4.3-.9-7.8.6-10.5,4-.9,1.1-.7,2.4-.7,3.6Z" transform="translate(-258.8 -21.5)"/><path class="cls-3" d="M699.3,141.6c-1.4-1.1-3-1.1-4.7-1a1.4,1.4,0,0,1-.2-.7c1.8-5-.2-9.8-.5-14.9-2.1.9-1.8,2.3-2,3.5s-.2,2.9-1,4.1-1.7,3.6-3.7,3-1.3-2.6-1.5-4.1,1.1-4.4.4-6.6c-2.6,2.7-3.8,10.8-2,13.4s2.9,1.4,4.5.3,4.1-1.7,5.2,1.3a2.5,2.5,0,0,0-.2.7c-1.6-.1-3.2-.1-4.3,1.4a13.7,13.7,0,0,1-2.3,1.7,1.8,1.8,0,0,1-2.2,0,9.4,9.4,0,0,1-2.3-1.6c-1.5-1.5-3.4-1.6-5.3-1.7a33.4,33.4,0,0,0,1.7-14c-.2-2.5.1-5.6-3.1-6.3s-4.6,1.9-6.5,4.3c2.2.7,4.6-2.3,5.8.9s-.8,4.5-3.3,5.5a10.9,10.9,0,0,0-3.3,1.9c-1.9,1.6-3.8,3.3-2.6,6s3.7,2.6,6.2,2.3,3.2-1.7,5-.6a20.2,20.2,0,0,0-.7,2.3,2.3,2.3,0,0,1-2.5,1.7l-4.8.3c-2.1.2-3.6-.1-4.2-2.5-.2-.6-1.1-1.2-1.7-1.7s-2.6-.2-2.3-2.4.1-4,2-5,3-3.2,3.2-5.8.2-5.1,2.4-7,.8-1.7,1.2-2.8c2.5,0,5-.1,7.6.1s3.5.5,3.6,2.9c0,.3.6.6,1,.8a2.7,2.7,0,0,0,.9,0h20.7c1.9,0,3.4-.3,3.8-2.6,0-.5.8-1,1.3-1.1a7.1,7.1,0,0,1,2.9,0,2.6,2.6,0,0,1,1.8,1.2c.9,1.9,1.7,3.8.2,5.9a28,28,0,0,0-1.5,3,7.9,7.9,0,0,0-1.1,5l-.6.3c-2.8-1.1-2.2-3.1-1.5-5.1s1.9-3,1.1-5.4c-2.1,3.6-4.6,6-9.4,3.3,4.4,5.7,2.3,10.5-.6,15.3Z" transform="translate(-258.8 -21.5)"/><path class="cls-3" d="M743.5,111.8l2.1-1.1c1.5-1.3,3.2-1,4.9-.5a2,2,0,0,1,1.3,1.2c.6,1.9,1.6,3.7,1,5.9a3.7,3.7,0,0,0,4.3,4.5l3.8-.5c3.2-.3,6.4.8,9.8.2s6.3-.1,9.5-.1h2.4c1.3.2,1.6.8,1.3,2.8l-.6.3c-4-1.9-7.4.8-11.1,1.1a1.7,1.7,0,0,0-1.4,1.7c-.1,3.1-.8,6.3.9,9.7,2-1.5,1.2-3.7,2-5.3s2-4.3,4.7-3.9,2.7,2.7,2.7,4.8.3,3.9-.6,5.6l-.5.5a5.8,5.8,0,0,1-1.4-.3c-1.5-.8-2.7-.9-3.7.7a3.3,3.3,0,0,1-2.9,1.5c-1.5.1-3.1.6-4.7.4-3.4-.4-6.8,1.4-10.2-.2-1.5-.6-3,.4-3.8,1.6s-3.3,2.3-5.4,1.7-3.4-2.7-4.2-4.8a2.5,2.5,0,0,1,.1-1.9c1-1.8.3-3.4-.3-5a4.3,4.3,0,0,0-4.6-3.4l-3.6-.2a13.4,13.4,0,0,0,0,6.9,4.7,4.7,0,0,1-2.6,5.9c-1.6.9-5.4-.3-6.2-2a6.2,6.2,0,0,1-.2-1.9c-.1-8-.1-15.9,0-23.9,0-3.4,1.8-4.3,4.5-2.5a5.8,5.8,0,0,1,1.3,1.4l-.6.5a4,4,0,0,0-3,4.2c0,5.6-.1,11.1.1,16.6a6.6,6.6,0,0,0,.5,2.8c.4.9.9,1.8,2.1,1.5s1.1-1,1.2-1.8c.5-3.2,0-6.3.4-9.5.3-1,.7-1.9,1.8-2.2,3.3.6,6.4,1.1,8.8-2.5s2.8-.6,3,1.3c.6,3.8.1,7.6.3,11.5.2,1.7-.6,4.6,1.9,4.6s1.3-2.9,1.3-4.6c.1-5.4.1-10.9,0-16.3,0-1.8.5-4.3-1.6-5.1s-2.5,1.6-3.6,2.6a4.5,4.5,0,0,1-2.5,1.4l-.7-.3a5.2,5.2,0,0,1,1.2-3.5A5.4,5.4,0,0,0,743.5,111.8Z" transform="translate(-258.8 -21.5)"/><path class="cls-5" d="M329.5,117.7c3,1.7,4,4.4,4,7.6a19.3,19.3,0,0,1-.1,2.4c-.3,3.5-.9,7-.4,10.5a2,2,0,0,1-1.7,2.5,2.4,2.4,0,0,1-2.8-1.4,7.2,7.2,0,0,1-.8-3.2c.1-2.5.4-5.1.7-7.6s.8-3.7-.1-5.6c-2.5.1-3.1,2.4-4.4,3.8a7.4,7.4,0,0,0-2,5.7c0,1.7,0,3.5-.1,5.3a9.3,9.3,0,0,1-.4,2.3,4.9,4.9,0,0,1-1.7,1.5,1.9,1.9,0,0,1-2.4-1.1,6.9,6.9,0,0,1-.9-3.1c-.1-2.7.1-5.4.2-8.1s0-3.2-.1-4.8a.9.9,0,0,0-.5-.7c-.2-.1-.7-.1-.8.1a53.4,53.4,0,0,0-4.1,5.3,4.9,4.9,0,0,0-.6,2.7c0,2.1.1,4.2.1,6.2a2.7,2.7,0,0,1-2.2,2.8,3,3,0,0,1-3.3-2.1,12.4,12.4,0,0,1-.4-3.3c.2-5.5.5-10.9.8-16.3a1.1,1.1,0,0,1,.1-.5c.4-.5.9-1.5,1.5-1.6a2.5,2.5,0,0,1,1.9.9,30.1,30.1,0,0,1,1.8,3.6c2.3-2.7,4.7-4.9,8.3-3.9h.7c2.8,3.8,5.5.3,8.3-.1Z" transform="translate(-258.8 -21.5)"/><path class="cls-1" d="M273.1,58c-1.1-.5-2.1-1.4-1.7-2.5.9-2.8-.2-5.4-.7-7.9a11.5,11.5,0,0,1,.1-6.1,9.7,9.7,0,0,0,0-5.6,15.4,15.4,0,0,1-.5-4.3c-.1-2.2,1.1-3.4,3-4.3a8.9,8.9,0,0,1,7.8.2c1.5.8,2.7,2,2.5,3.8a13.2,13.2,0,0,0,2.1,7.7,7.3,7.3,0,0,1,.8,4.6c-.3,3.2.8,6.3,1.2,9.4.1.2.7.4,1.1.5s.5-.6.4-.7c-1.2-2.6-.1-5.1.4-7.4a10.8,10.8,0,0,0-.8-6.9c-.6-1.3-1.5-2.4-1-4s1.5-4.3,3.2-5.8a6.7,6.7,0,0,1,3.4-1.3c1.2-.2,1.6.7,1.8,1.8s-2.8,2-2.9,3.9a5.6,5.6,0,0,1-.4,1.2,4.5,4.5,0,0,0,.3,3l.3,1.4c.2,3.8.1,7.7.1,11.5a20,20,0,0,1-.4,2.4c-2.9,5.8-3.2,11.9-3.4,18.1,0,3.2-.7,5.8-4.7,5.8s-4.7-2.6-4.6-5.8c.2-5.2-.5-10.3,1.8-15.5s.4-8.6-.6-12.6-1-5.3-1.7-7.9-.9-4.1-3.4-3.7-1.5,2.4-1.7,3.9c-1.1,6.1.6,12.1-.5,18.2C274.1,54.7,274.6,56.6,273.1,58Z" transform="translate(-258.8 -21.5)"/><path class="cls-3" d="M292.4,34c.1-1,.4-2.1.4-3.1s.7-1.8,2-1.7h11.9a2.8,2.8,0,0,1,1.9,2.6,14.7,14.7,0,0,1-.7,4.1,3.2,3.2,0,0,1-3.1,1.9,18.3,18.3,0,0,0-3.3.2,2,2,0,0,0-1.3,1.2,15.9,15.9,0,0,0-.6,3.8c.1,3.6.3,7.3.5,10.9,0,1.5.6,2,2,2.1l3.9.2a1.6,1.6,0,0,1,1.6,1.9c0,.6-.3,1.3-.3,1.9-.3,3.5-.3,3.5-3.8,3.8a6.1,6.1,0,0,0-1.9.1c-.5.2-1.3.7-1.3,1.1-.3,2.8-1.3,5.6-.3,8.4a2.3,2.3,0,0,0,2.4,1.8h5.3c2,.1,3.8-.1,4.1-2.8.1-.4.9-.8,1.5-.9a8.8,8.8,0,0,1,2.3,0c-1.2,3.6-.4,7.5-1.1,11.2a23.4,23.4,0,0,0-5.1,2.3,10.3,10.3,0,0,1-6.3,1.8,16,16,0,0,0-4.1.9h-2.8c-4.4,1.2-5.2-3.4-8-4.9a5.4,5.4,0,0,1-.4-1.5c0-2.6-1.7-3.5-4-3.8s-4.2-1.8-4.2-4.4c-.3-12.5-.5-24.9.1-37.4a3.8,3.8,0,0,1,.6-1.3l.6-.6a5.8,5.8,0,0,1,.8,2.2c.1,2,0,4,1.4,5.8s.5,2.2.6,3.3-.1,4.7.7,7a4.2,4.2,0,0,1-1.2,4.8,4.1,4.1,0,0,0-1.4,3.4c0,4.2-.1,8.3,0,12.4,0,1.8.6,2.3,2.3,2.4h2.4c1,0,2-.6,1.9-1.7-.3-3.6,1-7.2.3-10.8a5.4,5.4,0,0,1,.3-2.8c1-2.6,2.2-5.1,3.4-7.7,2.1,3.1,1.4,6.5.8,9.8a57.8,57.8,0,0,0,.5,18.1c.4,2.6,1.4,4.8,4.4,4.7s6.9-.6,9-3.6c1.1-1.5-.2-2.5-1.7-2.4-3.8.3-7.1,1-7.9-4.6-1.3-8.7-1.2-10.1,4.4-13.7a1.6,1.6,0,0,0,.7-1.6c-5.1-.2-5.3-3.8-5.4-7.9,0-2.5-.4-5-.4-7.6,0-6.1,0-6.1,6.1-8,1.1-.3,2.4-.6,2.4-2s-1.6-1.6-2.8-1.8C298.8,31.1,295.9,34,292.4,34Z" transform="translate(-258.8 -21.5)"/><path class="cls-3" d="M795.5,113c.2-2.9.5-3.2,2.8-3.1a9.9,9.9,0,0,1,2.4.3c1.6.5,2.2,1.3,2.3,3.1s0,2.5.1,3.8c.2,3.3,1.2,4.1,4.4,4.3l8,.3a2.8,2.8,0,0,0,3.1-1.8c.8-2.2,2.5-2.5,4.6-2.4l5.6.2a1.8,1.8,0,0,1,1.7,2.3,17.6,17.6,0,0,1-1.6,4c-.3.6-1.2.8-1.8,1.2l-.5-.5c-.4-1.7-.7-3.6-3.1-3.5s-3.9,1.9-5,3.9-.3,3.4,1.2,4.7l.7.5c2.1,1.3,4.6,2.7,3.3,5.5s-4.1,1.3-6.3.9-3.2-.4-4.8.2-2.8.6-3.8-.8-.8-2.7,0-4a20.5,20.5,0,0,0,2.5-4.6c.4-1.1.6-2.3-.5-3s-2.1-.2-3,.5c-2.7,2.2-4,7.8-2.5,11s4.8,4.6,8.5,2.2c1.1-.7,2-2.2,3.7-1.5s1.8,5.3,5.4,3.9,4.2-4,3.8-7.3c-.1-1.3-.5-2.5-.1-3.8a1,1,0,0,0,.4-.5c2.7,1.1,3.2,1.4,2.6,3.1s0,2.8.2,4.1.3,4.1-2.5,4.8c-.9.3-1.6,1.5-2.6,2.1s-3.4,1.7-5.3.4a3.8,3.8,0,0,0-1.7-.8c-.9,0-2.1-.1-2.6.4s-3.2,1.2-4.9,1.3-2.6.1-3.1-1.9a2.3,2.3,0,0,0-3.5-1.3,2.3,2.3,0,0,1-2.7-.5,2.3,2.3,0,0,0-3.3-.1c-1.1.8-5.6,1-7.3.5-.2,0-.3-.5-.5-.7a12.9,12.9,0,0,1,6.2-3.3c3-.6,3.8-2.2,3.9-5,.2-5.2-1.2-10.3-1.1-15.6C798.8,114.4,797.3,113.6,795.5,113Z" transform="translate(-258.8 -21.5)"/><path class="cls-3" d="M626.5,85.9c-1.3,1.5-3.8,1.7-4.4,4,0,.3-1.1.5-1.6.5s-1.7-.5-2.3-.3-2.8.5-3.7-1.5-2.1-1.7-3.6-1.8l-4.7-.2c1.2-14.6.3-29.2.6-43.8,0-2.3.5-5.1-3.4-4.8-.4-5.4.6-5,5-4.9,2,0,2.5.5,2.6,2.5s.1,4.2,0,6.3a4.3,4.3,0,0,1-.4,2.3c-2.5,2.7-.8,5.5.2,8a5.6,5.6,0,0,1,.4,4.9,16.7,16.7,0,0,0-.8,3.2,6.6,6.6,0,0,0,0,2.8,7.4,7.4,0,0,1,0,5.1,2.9,2.9,0,0,0,3.5,3.7l2.8-.4a1.8,1.8,0,0,1,1.9,1.1,20.1,20.1,0,0,0,1.4,2.5,1.3,1.3,0,0,0,2.3-.4c1.6-3.9.9-7.8.1-11.7-1.4-1.5-2.6-3.2-4.8-3.6A1.7,1.7,0,0,1,616,58c-.6-1.9-1.3-3.6-1.2-5.6s-.1-5.2.1-7.7.3-6.1,3.1-8.2c.4-.3.5-1.1.8-1.7s.5-1.3,1-1.4,3.3-1.2,3.4-3.4c0-.2.7-.4,1.1-.4a24.5,24.5,0,0,0,2.7.2c2.5-.2,2.5-.3,3.2,2.1.1.3.1.7.2,1l-.6.4c-7.1.1-9.7,5.3-11.6,10.9S616.4,55,622.1,59s6.1,12.5,3.4,17.5-6.4,5.3-9.8,1.3c-1.8-2.2-2.7-1-3.3.7-1.5,3.9,2.2,8,6.6,7.6,2.3-.2,4.5-1.6,7-.7Z" transform="translate(-258.8 -21.5)"/><path class="cls-5" d="M638,81.7V64.1c.7-8.4.4-16.8.9-25.2.1-1.9.4-3.6,2.3-4.4s3.4-.6,4.3,1.5h0c2.9,5.8,2.1,12.2,1.4,18.2-1,7.9-.5,15.7-.8,23.6-.1,1.4.4,2.9-.6,4.2h0c-.8,1.3,0,2.8-.8,4.1s-1.2,3.2-3.2,3.1-2.9-1.7-3.1-3.6S638.7,82.9,638,81.7Z" transform="translate(-258.8 -21.5)"/><path class="cls-3" d="M461.3,68.5c-2.8-.8-3.7-.4-3.8,2.1s-.2,7.6,0,11.4a23.8,23.8,0,0,1-1.1,7c-.2,1.1-.9,1.5-2,1.6a18.2,18.2,0,0,1-3.3,0,9.5,9.5,0,0,0-6,.5c-1.6.6-2.8-.4-4.1-.8s-.6-.7-.7-1.1a19.4,19.4,0,0,1-.2-2.4l.8-.2c4.6,1.6,5.5,1.1,5.5-3.5q.3-21.3,0-42.6a9.2,9.2,0,0,0-.3-2.9c-.6-1.9-.1-4.7-2.8-4.9s-3.1,2.3-4.4,3.9-.9,6.5-4.4,7.9c-2.4-5.9-.2-12.4,5-15.2,1.1-.6,2.3-1,3.5-.1h2c4.6-2,6.2,2.4,8.9,4.3a41.1,41.1,0,0,1-.4,10.5c-1.4,10.4-1.7,20.9-2.3,31.4-.1,3.1-.2,6.3,2.3,9,2-1.6,1.5-3.7,1.5-5.5.1-7,.1-14,.1-21,0-1.8-.1-3.6.7-5.2a1.6,1.6,0,0,1,1.4-.8C461.1,56.8,463.2,62.2,461.3,68.5Z" transform="translate(-258.8 -21.5)"/><path class="cls-3" d="M404.6,143.4c-1.1-1.8-1-3.8-.9-5.8,4.6,2,5.4,1.5,5.5-3.6s.5-7.6-.8-11.4-3.5-4.4-6.8-3.3-4.8,3.5-8.1,3.8c-1.5.1-2.1,14.8-.8,15.9s2.2.1,3.2.5.1,1,.1,1.5c.2,2.8-.5,3.3-3.6,3.2l-9.8-.2a83,83,0,0,0-9.9,1c-1.8.2-2.8-.5-3.1-2.5s-.4-4.4-.6-6.6l.2-.2a1.6,1.6,0,0,1,1.8,1.2c1.7,3.4,3.9,5,7.4,2.1a2.5,2.5,0,0,1,2.7-.4c4.2,2,4.1-.8,4.1-3.5s-.1-6.4,0-9.5-1-5.5-4.5-6.1l-.2-.2c-.4-1.1-.5-1.9,1.1-1.8h3.8a48.2,48.2,0,0,0,12,.1c1.7-.2,2.7-.9,2.9-2.6s1-1.4,2-1.2l4.2.9c.3.1.7.2.8.5,1.1,2.6,4.4,3.7,4.2,7.3-.4,5.4-.1,10.8-.2,16.2a49.7,49.7,0,0,1-.7,5.2C408.6,144.8,406.5,145.3,404.6,143.4Z" transform="translate(-258.8 -21.5)"/><path class="cls-3" d="M583.3,140.6c-.8,1.2-1.6,2.2-3.1,1.3-3.4-2-7.1-1.3-10.7-1.2-1.8,0-3,1.5-4.4,2.6s-2.2,1.4-3-.1-3.6-2.5-5.2-3.9-2.2-.8-3.5.8-.9,1.3-1.7,1.4a2,2,0,0,0-2.1,2.1c-.2.9-.7,1.4-1.6,1.3l-6.2-.5-6-.6a3,3,0,0,1-1.4-1.1,22.5,22.5,0,0,1-1.2-2.1l.6-.5h1.9c12.6,2.9,20.7-3.5,21.3-16.5.1-4.1-.4-8.2-.1-12.4.2-.1.3-.3.5-.5,1.8.9,3.1,2,2.8,4.4s.5,2.4.6,3.7.2,2.5,2.5,2.5h16.6a3.9,3.9,0,0,0,3.7-1.6c.6-.8,1.9-1.1,2.9-1.5s1.4.1,1.5,1.1a12.8,12.8,0,0,0,.1,1.9l-.5.4c-2.6.5-3.5,2.5-4.3,4.7-1.6,4.5-2,4.5-5,.7-.3-.3-.7-.6-1.9-.5,1.5,4.9-.1,10.9,6.5,13.5Z" transform="translate(-258.8 -21.5)"/><path class="cls-6" d="M603.4,38l.3-.4c.7-1.3,1.1-2.9,3-2.3s1.8,2.1,1.8,3.5,0,4.5,0,6.7l-.3,30.2c0,1.9-.2,3.8-.1,5.7a7,7,0,0,1-1.9,5.2h0c-1.9,1.3-3.3.2-4.6-1.1h0c-.1-1.2-.4-2.5-.4-3.8L603,47.4c.2-2.9.3-5.7.4-8.6A.6.6,0,0,0,603.4,38Z" transform="translate(-258.8 -21.5)"/><path class="cls-1" d="M443,29.2c-3.5.2-5.4,3-7.2,5.4s-1.1,4.2-1.4,6.3.1,2.5.1,3.7l-.4.6c-2.7,1.7-1.4,4.5-1.9,6.8s-.3,4.7-.8,7.1a3.4,3.4,0,0,1-.6,1.2c-2.5,2.3-2.6,5.3-2.8,8.3s.1,3.5-.5,5.2a3.5,3.5,0,0,1-.8,1.3c-4.1,1.6-7.2.1-8.4-4.5-.8-3-1.1-6.1-2.5-9s1.8-4.8,2.7-7.3c3.5-1.4,3-4.7,3.6-7.5a3.5,3.5,0,0,1,1.7-2.2c2.5,1.4,2.9,3.4,2.1,6.1s-.9,3.7-2.3,5.1-3.3,5.7-1.8,9.2a5.9,5.9,0,0,1,.2,1.4c.4,1.2,1.2,1.9,1.9,1.6s.9-1.2.9-2a13.9,13.9,0,0,1,2-7.7,6.9,6.9,0,0,0,.8-3.2c.2-2,.1-4.1.1-6.2s.6-5,3.2-6.5a3.3,3.3,0,0,0,1.6-3.2V37.3A6.4,6.4,0,0,1,435,31a7.2,7.2,0,0,0,1.4-2,3.3,3.3,0,0,1,3.1-1.7C441.1,27.2,442.4,27.7,443,29.2Z" transform="translate(-258.8 -21.5)"/><path class="cls-3" d="M589,143.4c-.4-.9-.7-1.9-1-2.8l.6-.3c3.8.9,7.4-.8,10.9-1,7-.2,5.5-4.3,5.5-8.1s2.2-4.7,4.8-6.1c-5.1-2-7.1-1.1-7.1,3.5s-2.9,6.8-6.3,8.8a3.2,3.2,0,0,1-4.3-.7c-1.3-1.6-.6-3,.7-4.2s1.2-1.1,1.7-1.7c4.2-4.6,3.6-7.1-2.3-9l-.4-.5a12.1,12.1,0,0,1,.1-1.9c.3-1.4,1.1-2.1,2.2-1.8s3.8.4,4.6,2.7a2.6,2.6,0,0,0,2.8,1.4l7.5-.3c1.6-.1,2.8-.3,3.1-2.2s1.6-1.6,2.8-1.7c1.5,3.5,1,7.1.6,10.8s-1.7,8.7,2.9,11.7l.4.6c-2.3,2-4.2.1-6.2-.6-.3-.1-.4-.7-.6-1.2-.5-2.1-1.2-4.3-1-6.5a2.5,2.5,0,0,0-1.7-2.6c-1.1-.5-2-.1-2,1-.1,2.9-.1,5.8-.1,8.7v2.3c-.1,2.1-.6,2.6-2.6,2.7-5.2,0-10.5.3-15.6-1Z" transform="translate(-258.8 -21.5)"/><path class="cls-3" d="M400.8,30.2l1.9-1h11.5c6.1-.9,10.4,4.4,8.7,10.7-2,0-2.6-1.7-3.6-2.8a16.3,16.3,0,0,0-4.4-4.3c-6.2-3.6-11.5-.6-11.8,6.3-.6,13.7-2.3,27.3-2,41.1a5.2,5.2,0,0,1-.7,3.2l-.6.6-1.5-1.2c-1.6-1.2-2.1-2.5-1-4.5a14.5,14.5,0,0,0,1.4-9.2c-.1-.5-.7-1.2-1.2-1.2a1.9,1.9,0,0,0-1.3,1c-.7,2.8-1.6,5.5-4,7.4l-.5-.5c-1.2-3.6-1.5-7,2-9.8,1.8-1.5,1-2.5-1-2.8a12,12,0,0,0-4.2.4c-4.7.8-4.7.9-2.1,4.6s-1,12.7-4.8,14.1-4.6-.8-4.8-4.1l1.8.7a2.4,2.4,0,0,0,3.2-1.2,26.9,26.9,0,0,1,2-2.7c.5-.7.8-1.5.1-2.1s-1.6-4-2.8-5.9-.4-4.6.6-7.1h16.2a1.8,1.8,0,0,0,1.9-1.8V55.2c0-3.4.3-6.7,0-10.1s1.1-8.1.1-12.3c-.1-.8.6-1.8.9-2.6Z" transform="translate(-258.8 -21.5)"/><path class="cls-7" d="M795.5,113a5.3,5.3,0,0,1,1.5-1.1,1.5,1.5,0,0,1,2.3.8,6.5,6.5,0,0,1,.6,2.3c.5,5.5.9,11,1.3,16.6a15.3,15.3,0,0,1-.2,3.7c-.3,2.1-1.5,3.1-3.6,2.6s-2.1-.2-2.9.8a5.5,5.5,0,0,1-4.7,1.7h-.1a6.3,6.3,0,0,1-4-3.8c-.8-2.4-.2-4.8.2-7.2s.8-3,2-3.7c4.9-2.6,7.2-6.7,7.5-12A.6.6,0,0,0,795.5,113Z" transform="translate(-258.8 -21.5)"/><path class="cls-3" d="M630.4,32.9l4,.3c-.6,4.1,0,8,.2,11.8a24.9,24.9,0,0,1-.8,6.1c-.1.4-.9.9-1.4,1s-3,.7-2.9,2.5,1.6,1.9,2.7,2.3,1.2,1.2,1.4,2.4a91.9,91.9,0,0,1,.5,12.8c0,2.3.2,4.5-.7,6.7s.3,1.8.3,2.7a1.9,1.9,0,0,1-.5,1.2c-1.7.4-2.7,1.7-4,2.5a8.3,8.3,0,0,1-2.7.7l-.3-.3c-.1-1.4.8-2.4,1.5-3.4,6.9-10,5.1-20.9-4.5-28a5.7,5.7,0,0,1-2.7-5.3,24.1,24.1,0,0,1,3.2-9.9c.8-1.3,1.8-2.5,3.5-2.2s2,1.9,2.2,3.3,0,5.1.4,8.6c2.2-5.8.2-10.8.4-15.7Z" transform="translate(-258.8 -21.5)"/><path class="cls-3" d="M623.5,140.6h-4.7l-.3-.3c-.4-5.4,0-10.8.1-16.2s4.1-3.8,7.1-6.2c-5.6,1-8.2-.9-7.2-6.7-2.3,2-.8,5-3.5,5.6,0-2.5-.1-5.1-.1-7.6a2.8,2.8,0,0,1,1.4-2.8c1.4-.7,2.5.1,3.4,1s2.9,2.6,3,4.7.7,1.4,1.6,1.5h.9c1.6.2,3.5,0,4.5.8s.3,2.9,0,4.5a2.8,2.8,0,0,0,2.6,3.3c2,.1,4.1.2,5.8-1.4a6.8,6.8,0,0,1,1.7-.9c1.8-1,3-.3,3.9,1.3l-.4.5a10,10,0,0,0-7.1,6,3.7,3.7,0,0,0-.5,2.3,5,5,0,0,1-.2,1.2c-1.5,2-3.1,2.1-4.7.1a2.5,2.5,0,0,1-.1-1.2,8.5,8.5,0,0,1,.6-1.7c.1-.4.3-.7.4-1.1a2.2,2.2,0,0,0-.8-2c-3.8-1.9-5.5.8-7.1,3.4a12.6,12.6,0,0,0-1.1,5.1,8.8,8.8,0,0,0,.2,2.8l.3,1,.6,1.5a1.7,1.7,0,0,1,0,1Z" transform="translate(-258.8 -21.5)"/><path class="cls-8" d="M615,116.8c.3-1.7.5-3.4.8-5.1a8.6,8.6,0,0,1,.5-2.3c.3-.8,2-1,2.4-.1a7.9,7.9,0,0,1,.8,2.6c.2,1,.1,2,.2,2.9l.3,2.5,4.8-1a6.2,6.2,0,0,1,1.9-.2,2.2,2.2,0,0,1,1.4,1.1,1.9,1.9,0,0,1-.5,1.6,16.8,16.8,0,0,1-3,1.5,12.8,12.8,0,0,1-3.1,1.1,2.1,2.1,0,0,0-1.9,2.4c0,4-.1,8,0,12a7.9,7.9,0,0,1-1.1,4.5c-3.4,0-4.4-.6-4.5-3.4s.2-6.4.4-9.6.6-4-.1-6.2.4-2.4.6-3.6S615.2,117.1,615,116.8Z" transform="translate(-258.8 -21.5)"/><path class="cls-3" d="M301,136.8a5.2,5.2,0,0,1-2.8,4.2,5.9,5.9,0,0,0-1.8,1.4c-1.7,1.8-1.7,1.9-3.2,1l-2.8-1.9c-2.9-2.5-6.1-1.8-9.3-.8-.4.1-.9.6-.9.9.5,2.9-1.2,2.2-2.8,1.9a3.1,3.1,0,0,0-1.9.3c-2.8,1.5-5.6-.2-8.4,0a1.4,1.4,0,0,1-1.2-.6,13.1,13.1,0,0,0-3.5-3.9c-.6-.5-.6-1.7-.8-2.6s-.1-.6-.1-1a1.8,1.8,0,0,1-.1-1.9,1.2,1.2,0,0,1,1.3.1c1.1,1,1.5,2.4,2.2,3.6a8.4,8.4,0,0,0,8.7,3.7c3.8-.6,6.1-3.2,7.7-6.4a2,2,0,0,0-.4-2.6,2,2,0,0,0-2.6,0c-1.5.8-2.6,2.3-4.2,3s-4.5.4-4.8-2.7c3.1-.6,4.7-4.9,8.6-3.5h3.9c2-2.8,4.2-5.5,5.7-8.7s2.4-4.2,5.5-3.2c1.4,1.8-.3,2.9-1.1,4.1a29.2,29.2,0,0,0-3.6,8.8c-.8,3.6,0,6.7,3,9s5-.2,7.2-1.7a2.9,2.9,0,0,1,2.2-.8Z" transform="translate(-258.8 -21.5)"/><path class="cls-3" d="M441.1,140.6l-.9.9h-2.9c-2.1-1.2-4.1-1.9-6.7-1.1s-5,.3-7.5.6a9.9,9.9,0,0,1-6.3-1.6c-1.9-1.1-1.6-2.9-1.6-4.6l.6-.2c5.6,4.3,7.8,4.7,11.3,2a5.7,5.7,0,0,0,2.7-4.8c-.2-3.8-.3-7.7-2-11.2s-4.2-4.8-7.7-1.9c-1.4,1.1-2.4,2.6-4.3,2.9l-.6-.3c0-1.5-.1-3,1.4-4.2s3.5-3.6,6.3-3.4h1.9c2.6-1.2,5.1-1.4,7.4.9.6.7,1.3.6,2.1.2a4.1,4.1,0,0,1,1.1-.7h1.3a2.4,2.4,0,0,1,1.1.6c.8.8,1.4,1.7.5,2.8l-.2.2c-4.7,5.5-3.6,11.9-2.8,18.2.3,2.9,3.8,2.9,5.6,4.5Z" transform="translate(-258.8 -21.5)"/><path class="cls-3" d="M809.7,90.7c-.4-.2-1.1-.2-1.3-.5-1.2-2.1-2-4.4-1.2-6.8a15.4,15.4,0,0,0,.1-8.5,28.4,28.4,0,0,1-.5-4.2,4.2,4.2,0,0,0-.8-2.2c-.2-.3-1.1-.3-1.6-.2s-.6.7-.8,1.1a3.2,3.2,0,0,1-3.4,2.1,1.7,1.7,0,0,0-1,.1c-5.4,1.7-5.5,2-3.7,6.4,1.1,2.7.5,4.9-.8,7.2s-1.8,1.6-3.2,1.6-.1-.5-.2-.7c2-7.4-.5-14.7-.2-22a36.3,36.3,0,0,1,.3-5.7c.2-.9.3-2.1,1.5-2.2s1.6.9,2.1,1.7a21.7,21.7,0,0,1,1.5,3.5c.8,1.9,1,4.5,3.5,4.7s3.3-2.5,4.4-4.3a28.5,28.5,0,0,1,2.3-3.7c1.4-1.5,2.4-1.2,3,.7a9.6,9.6,0,0,1,.4,3.4c0,9.2.1,18.5,0,27.8Z" transform="translate(-258.8 -21.5)"/><path class="cls-1" d="M277.9,129a4.4,4.4,0,0,0-3.7,1.9c-1.2,2-3,2-4.9,2a2.8,2.8,0,0,1-.8-1.1,8.5,8.5,0,0,1,0-4.2,6.5,6.5,0,0,1,.4-1.3c.9-2.2,2.6-4,3.4-6.3a6.1,6.1,0,0,1,4.3-3.5c3.6-1,6.3-3.1,6.6-7s-3.9-5.6-7.8-6.3a3.9,3.9,0,0,1-1.8-.6l-.5-.4a2.1,2.1,0,0,1,1.3-1.9c2.3-.7,4.7-.2,7,0,.7.1,5.9,5.1,6,5.8,0,2.5,0,5.1-.1,7.6-.1.6-1,1.2-1.5,1.8a12.9,12.9,0,0,0-2.7,2.5,4.2,4.2,0,0,1-4.3,2.4c-1.3,0-1.9,1-2.4,2.1S276.5,127.1,277.9,129Z" transform="translate(-258.8 -21.5)"/><path class="cls-3" d="M760.7,79.2a33.4,33.4,0,0,0,1.7,3.8c3.4,5,7.7,6.1,13.6,3.6,0,.5.1,1,.1,1.4-.1,2.1-.7,2.7-2.5,2.6s-3.6-.9-5.6-.1-2.3,0-3.4-2.2c-.3-.5-.6-1.2-1.1-1.4a17.9,17.9,0,0,1-3.6-3.1,1.3,1.3,0,0,0-2.3.3c-.7,2.3-2.6,2.6-4.4,2.6H739.7c-1.2,0-2-.6-1.7-1.7.5-2.8-.9-4.9-2.8-6.7a3.6,3.6,0,0,1-1.3-2.9c0-4.3,0-8.6.1-12.9,0-1.4.7-2.8.8-4.2s1.4-2.3,3-2.2l-1.5,13.2A20.6,20.6,0,0,0,738.1,80c1.6,3.7,4.4,5.8,8.6,5.8h1.4c5.2.5,8.9-1.6,10.9-6.5C759.6,78.5,760.1,78.5,760.7,79.2Z" transform="translate(-258.8 -21.5)"/><path class="cls-3" d="M814.6,33c1.6,0,2.9.3,2.9,2.3s1,2.3.4,3.7a2,2,0,0,0,.2,1.7c1.5,1.7,1.2,3.6,1.3,5.5a74.7,74.7,0,0,1-1.7,18.3,16.4,16.4,0,0,0-.2,3.8c-.1,5.8-.1,11.5-.1,17.2a19.2,19.2,0,0,1,0,2.4c-.1,2.2-.1,2.2-2.8,2.8a5.9,5.9,0,0,1-.4-.8c.1-11.9-.8-23.8.7-35.7.9-6.9-.9-13.6-.7-20.4C814.3,33.5,814.5,33.3,814.6,33Z" transform="translate(-258.8 -21.5)"/><path class="cls-3" d="M273.1,58c.2-3.6-.4-7.3.8-10.9.3-.7-.3-1.8-.3-2.7s-.7-4.2-.3-6.1.1-5.9.7-8.8c2.2-.9,4,.2,5.9,1s.7,1,.8,1.5a12.3,12.3,0,0,1,.2,1.9l-.3.2c-2.8.3-4.3,1.6-4.2,4.6.4,12.5-1.6,24.8-1,37.3.3,6.5,1.5,7.6,7.8,6.4,1.7-.3,3.4-.9,5.1.3l.2.3c.3,3.8-1.8,5.1-5.2,5.1-1.2,0-2.5.1-3.8,0-7.4,0-9-2.6-6.4-9.9Z" transform="translate(-258.8 -21.5)"/><path class="cls-3" d="M490.1,29.2c1,0,1.6.7,2.3,1.4a19.1,19.1,0,0,0,4.1,2.9,29,29,0,0,1,5.7,4.8,8.2,8.2,0,0,1,1.3,3.5,22.9,22.9,0,0,1,0,3.7c-3-.3-3.3-3.1-4.6-5-2.3-3.6-5.2-5.9-9.7-6.1-2.6,0-4.3.9-4.4,3.8-.3,9-2,17.8-2.1,26.8,0,2,.7,4.6-2.1,5.7-.1-6.9-.5-13.9.3-20.8a45.5,45.5,0,0,0-.4-5.2c0-1.4-.3-2.8.9-4s.8-2.1.1-3.3-1.4-2.8.8-4.3a3.8,3.8,0,0,0,2-3.9Z" transform="translate(-258.8 -21.5)"/><path class="cls-1" d="M453.6,33.2c-1.6-.3-3.3.1-4.2-2.1s-2.6-2-4.4-1.9c1.5-2.8,4-2.2,6.2-1.5a22.5,22.5,0,0,0,3.5.9c2.9.3,5.2,2.1,7.7,3.4a4.7,4.7,0,0,1,1.7,2.7c.5,1.9.8,4,1.2,6.2l3.6-2.1a2.9,2.9,0,0,1,1,2.6,5.9,5.9,0,0,1-.2,1.4c-1.6,6.4-1.8,6.4-8.1,2.6a3.1,3.1,0,0,1-.9-1.1c-1.5-2.8.9-6.6-2.3-9.1l-1-.5-.9-.5-1-.5-1.4-.5Z" transform="translate(-258.8 -21.5)"/><path class="cls-3" d="M643.7,121.3c1.6.2,3.1,1,2.7,2.7s.5,3.4,1.7,4.6a3.7,3.7,0,0,1,1.1,3.8,3.7,3.7,0,0,0,.2,2.3c.9,1.8.2,3-1.1,4.1s-3.6,3.6-5.7,4.9-3.8,1.8-5.9,1-5.5-.8-8.3-.5a40,40,0,0,1-4.9,0v-3.6l.3-.3c2.9-.4,6,.1,8.7-1.6,1.1-.7,2.2-.1,3.2.5,3.3,2.3,6.1,1.2,8.4-1.6s2.5-5.8-.1-8.6a8.3,8.3,0,0,1-.8-1.2,3.1,3.1,0,0,1-.3-1.3c.3-1.6-.1-3.3.5-4.9Z" transform="translate(-258.8 -21.5)"/><path class="cls-1" d="M438.3,117.4c-.3-.9-.7-1.8-1-2.8h-1.9l-.9,1.7c-1.2,1.6-2.1,1.5-2.9-.4s-1.7-2.4-3.6-2a11.7,11.7,0,0,1-3.2-.2,2.9,2.9,0,0,1,3-1.9l11.3.4c.5,0,1,.3,1.4.2,2.6-1,5.3-.4,8-.7.9-.1,2.2-.4,2.5-1,1.4-2.9,3.8-3,6.4-2.8a2.7,2.7,0,0,1-1.6,2.7,4.9,4.9,0,0,0-2.7,3.7c-.4,1.4-.8,1.6-1.9.8s-1.5-.9-2.4-.2a1.8,1.8,0,0,1-1.3.4c-1.7-1.5-2.6-.2-3.8.8A6.5,6.5,0,0,1,438.3,117.4Z" transform="translate(-258.8 -21.5)"/><path class="cls-3" d="M677.1,33.3l-.9-.3c-2.7-.7-4.2-.1-4.7,2.4a67,67,0,0,0-1,9c-.2,6.5-.1,13.1-.2,19.6a12.5,12.5,0,0,1-.2,3.8c-2.1-2.5-4.4-8.2-5.5-13.6,1.2.3,1.6,2.4,3.2,1.5s.7-2.3.8-3.5c.2-2.8-.4-5.7.7-8.4a4.1,4.1,0,0,0-.1-1.9c-.1-.8-.4-1.5-.5-2.3-.5-4.7-.3-5.3,3.3-8.5.8-.7,1.6-2,2.8-1.5A3.3,3.3,0,0,1,677.1,33.3Z" transform="translate(-258.8 -21.5)"/><path class="cls-1" d="M273.1,78.2c.3,2.7.6,5.5.9,8.6h9.4a6.7,6.7,0,0,0,3.2-.4c.6-.3.6-1.6,1-2.4s.6-.6.9-1,2.9-.2,3.3,1.2,2.6,2.7,4.4,3.6c-.9,1.7-1.8,2.4-2.7,1.7s-4.6-.8-7.1-.4-7.4,1.8-11.2.7-4.3-2-4.8-4.2-.8-5.2,1.9-7Z" transform="translate(-258.8 -21.5)"/><path class="cls-3" d="M645.5,82l.3-27.8c0-6.1-.2-12.2-.3-18.2a4.7,4.7,0,0,1,3,4.8c.2,3.9,1.3,7.7,1,11.6a16.6,16.6,0,0,0,.9,3.7c-2.9.4-3.9,2.2-3.9,5,.1,5.8.1,11.6.1,17.4C646.5,79.8,646.8,81.1,645.5,82Z" transform="translate(-258.8 -21.5)"/><path class="cls-3" d="M791.6,40.7c3.9.7,5.6,3.7,6.7,7.1a19.1,19.1,0,0,0,1.3,3.6c.3.5,1.4.7,2.1.6a2.2,2.2,0,0,0,1.2-1.3c.2-2.6.1-5.4,1.1-7.9.2-.5.2-1.2.4-1.3,2.8-.9,2.2-3.6,3-5.5s1.3-2.9,3.2-3a2.1,2.1,0,0,0,.4.6c-2.2,6.8-3.5,13.9-6.6,20.4-.8,1.6-1.5,4-3.6,4s-2.7-2.4-3.4-4.1-3.1-5.9-4.8-8.8c-.8-1.3-2.1-2.4-1.3-4.2Z" transform="translate(-258.8 -21.5)"/><path class="cls-3" d="M656.9,88.6c.4-8.6.9-17.2,1.4-25.8a6.6,6.6,0,0,1,.1-1.4c.1-.2.4-.6.6-.6a1,1,0,0,1,.7.4L665,77.1a13.3,13.3,0,0,1-2.1-.9c-1.8-1.1-1.8-1.2-2,1.2a3.1,3.1,0,0,1-1.3,2.4,3,3,0,0,0-1.5,3.2,24.4,24.4,0,0,1-.1,3.8A5.8,5.8,0,0,1,656.9,88.6Z" transform="translate(-258.8 -21.5)"/><path class="cls-1" d="M319.1,117.6a6.5,6.5,0,0,0,0-1.4c-.4-1.9-1-2.4-2.5-1.6a16.4,16.4,0,0,0-2.9,1.6c-1.6,1.1-1.5,1.1-2.7-.7a3.6,3.6,0,0,1-.4-.9h0c-4-1.4-4-1.4-7.1,2.2a1.7,1.7,0,0,1-2.5,0l-2-3.1a8.8,8.8,0,0,1,5.8-1.9,36.4,36.4,0,0,1,6.6.1,5.7,5.7,0,0,0,3.7-.3c2-.9,3.8-.3,5.5.5s2.2,2.7,2.4,4.5a2.7,2.7,0,0,1,0,.9c-1.2,1.2-2.5.7-3.9.1Z" transform="translate(-258.8 -21.5)"/><path class="cls-1" d="M261.6,113.7a5.2,5.2,0,0,1,2.6-4.3c2.3-1.5,3.8-3.7,5.7-5.5s1.8-1.8,3.2-1.7c2.8,2.7.1,4.2-1.5,5.6a24.4,24.4,0,0,0-8.9,18.9,5.4,5.4,0,0,1-.5,2.1,2.3,2.3,0,0,1-1.6,1.2c-1.4-.7-2.4-1.9-1.5-3.5a8.1,8.1,0,0,0,.6-5.5,38.4,38.4,0,0,1,0-4.8A2.9,2.9,0,0,1,261.6,113.7Z" transform="translate(-258.8 -21.5)"/><path class="cls-3" d="M365.3,65.7c.1-1.1.1-2.2.2-3.3s.5-1,.4-1.3c-1.8-4.1,1-6.3,3.3-8.8,1.8,2.3,1.2,4.9.8,7.3-.8,5.3-.5,10.5-.4,15.7s2.3,7.2,3.6,10.8l-.3.8c-1.9,0-3.5-.5-3.9-2.7a1.5,1.5,0,0,0-.6-1.3c-2.6-1.6-2-4.3-1.5-6.3a7.2,7.2,0,0,0-1.6-6.1Z" transform="translate(-258.8 -21.5)"/><path class="cls-3" d="M653.3,53.2c0,1.6,0,3.2-.1,4.7-.7,8.4-1.5,16.8-2.3,25.2,0,1-.2,1.9-.2,2.9.1,2.9.9,3.6,4.4,4.4-.3.3-.6,1-.9,1-2.8,0-4.6-1.5-4.7-4.2s0-5.4-.1-8.1.6-5.3.1-8a3,3,0,0,1,.1-2.3A4.3,4.3,0,0,0,650,64a4.4,4.4,0,0,1-.1-3.2,25.9,25.9,0,0,0,.5-4.7,1.9,1.9,0,0,0,1.9-1.5A12.1,12.1,0,0,1,653.3,53.2Z" transform="translate(-258.8 -21.5)"/><path class="cls-3" d="M568.8,85.8c.3,2.5-.3,4.5-2.9,5.3a6.2,6.2,0,0,1-2.3.2,22.9,22.9,0,0,1-2.8-.7c-2.6-.5-4-2.1-3.3-4.6a11.1,11.1,0,0,0-.1-6.5,16,16,0,0,1-.1-3.8c-.1-7.8-.1-15.6-.1-23.4h.2c2.5.7,2.1,2.9,2.1,4.6-.2,7.3,1.5,14.6,1.1,21.9a15.1,15.1,0,0,0,.5,4.2c1.1,5.3,2.4,5.8,6.9,2.8Z" transform="translate(-258.8 -21.5)"/><path class="cls-1" d="M422.7,40.1c.4-2.3-.8-4.3-1.2-6.4-2.3-.8-2.7-3.9-5.4-4.1a16.2,16.2,0,0,1-1.9-.4c.2-.8.4-1.6,1.3-1.8a18.5,18.5,0,0,1,3.3-.1,5.1,5.1,0,0,1,2.1,1c.7.6,1.1,1.6,1.9,2.1,3.8,2.6,3.5,6.4,2.8,10.2-.1.7-1.1,1.3-1.8,2a3.5,3.5,0,0,1-1.1-1.3A2.4,2.4,0,0,1,422.7,40.1Z" transform="translate(-258.8 -21.5)"/><path class="cls-3" d="M530.3,123.2c-.5-5.1,2.7-8.7,5.2-12.7,3.5-1.9,6.4-5.1,11-4.5a54.2,54.2,0,0,0,5.7,0,4.9,4.9,0,0,1,3.5.9,4.7,4.7,0,0,1,1.7,3.8l-.2.2c-3.3-.5-6.1-2.5-9.9-2.1-6.2.5-9.8,3.7-12.7,8.6-1.2,2.1-1.4,4.6-3.6,6Z" transform="translate(-258.8 -21.5)"/><path class="cls-1" d="M293.6,117.7c-2.6-.5-4.4.5-5,3a6.9,6.9,0,0,1-2.1,3.6c-.8.9-1.8,1.6-1.9,3s-1.6,1.7-2.8,1.7.2-2.4.9-3.1a12.4,12.4,0,0,0,3.2-6.7,3.2,3.2,0,0,1,1-2.1c.5-.6,1.2-1.4,1.9-1.3,2.4.1,4.1-1.3,5.9-2.7a1.6,1.6,0,0,1,2.4.6c-.9,1.3-1.9,2.6-2.9,3.8l-.2.3Z" transform="translate(-258.8 -21.5)"/><path class="cls-3" d="M664.7,54.3c-1-2.7-1.9-5.4-2.8-8.1a30.8,30.8,0,0,0-4-9.1l-.9-1.2c-.8-.9-1.7-.9-2.8.2a10.5,10.5,0,0,0-.8,1.1c0-4.4.6-4.8,4.6-3.4a3.5,3.5,0,0,1,2.7,3,12.4,12.4,0,0,0,3,6.3,4.8,4.8,0,0,1,1,3.1C664.9,48.9,664.7,51.6,664.7,54.3Z" transform="translate(-258.8 -21.5)"/><path class="cls-3" d="M722.4,79.1c3.1,1.3,3.5,2,1.9,4.3s-2.1,4-4.6,4.5l-.4.2c-1.7,4-5,2.1-7.9,2.6-.1-3.9-1.4-7.3.4-10.6l2.9-1,.3.5a5.7,5.7,0,0,1-.4,1.4c-.7,1.8-2.4,4.1.7,5a4.4,4.4,0,0,0,5.7-2.9c.5-1.1.3-2.5.9-3.6Z" transform="translate(-258.8 -21.5)"/><path class="cls-1" d="M381.6,117.5l-1.1,1.8c-1.5-.4-2.9-.9-4.5-1.2s-2.7-.4-4.1-.6-2.5.5-2.9,2.3-1.5,1.8-2.7.6l-2.9-2.9c.1-1,.6-1.8,1.7-1.8q7.3-.2,14.7,0C381,115.7,381.4,116.5,381.6,117.5Z" transform="translate(-258.8 -21.5)"/><path class="cls-3" d="M645.5,36a8.4,8.4,0,0,0-2.1-1.1,2.7,2.7,0,0,0-3.5,2.3c-.1.8-.1,1.6-.2,2.3-.3,6.7-.6,13.3-1,19.9-.1,1.6-.5,3.1-.7,4.7,0-8.3-.1-16.7,0-25a30.3,30.3,0,0,1,.9-5.1h0c1.8-.2,3.6-1.4,5.5-.9a2.5,2.5,0,0,1,1.5,1.1C646.1,34.7,645.7,35.4,645.5,36Z" transform="translate(-258.8 -21.5)"/><path class="cls-3" d="M710.9,132.8c1.4.2,2.5.8,2.7,2.2s.6,3.3-.6,4.6a3.3,3.3,0,0,1-2.1.9c-1.6,0-2.8.5-3.4,2a1.6,1.6,0,0,1-2.2,1.1,8.8,8.8,0,0,0-2.8.2c-2.1.3-2.1.4-3.2-2.2l.2-.2c1.7-.5,3.3-1,4.1-2.8s1.4-2.6,2.8-1.9c4.6,2.4,3.6-1.5,4.2-3.6Z" transform="translate(-258.8 -21.5)"/><path class="cls-3" d="M795.4,113.7c-.1,2.6-.1,5.3-.2,8,0,.4-.7,1.2-1.1,1.2-4.4.4-5.8,3.8-7.4,7.1a1.7,1.7,0,0,1-2.1.1c-1.1-1.8-1.9-3.6-.9-5.7l.2-.2c1.4.8,2.7,1.4,4.2-.3a12.8,12.8,0,0,1,3.6-2.2,2.7,2.7,0,0,0,1.7-3.1,11.6,11.6,0,0,0-.4-1.8c-.2-.8-.5-1.6.3-2.2A6.7,6.7,0,0,1,795.4,113.7Z" transform="translate(-258.8 -21.5)"/><path class="cls-3" d="M603.4,25.3a9.6,9.6,0,0,1,.2-1.2,3.3,3.3,0,0,1,4.3-2.5,3.8,3.8,0,0,1,2.9,4.2c-.4,3.4-1.4,3.9-4.7,2.9l-.9-.4C603.9,28.1,603.3,27.4,603.4,25.3Z" transform="translate(-258.8 -21.5)"/><path class="cls-3" d="M639.4,22c.4,0,1-.2,1.3,0s2.8-.9,3.5.3a20,20,0,0,1,1.2,5.5,2,2,0,0,1-1.2,1.2,19.7,19.7,0,0,1-4.2,0,2.3,2.3,0,0,1-1.9-2.8C638.5,24.8,638.9,23.5,639.4,22Z" transform="translate(-258.8 -21.5)"/><path class="cls-3" d="M572.8,66.7c-.1,4.3-.2,8.5-.1,12.8,0,1.6-.1,3-2,3.8s-1.3,1.6-1.9,2.5h-.1c-2.3-5.6,1.1-10.7,1.6-16,.1-1.3.3-3,2.3-3.1Z" transform="translate(-258.8 -21.5)"/><path class="cls-1" d="M465.1,108.9c.1-1.8-.8-3.6.6-5.4s-.4-2.6-.7-4-1-1.1-1.8-1.2.8-1.9,2.2-1.8,2.3.7,2.4,1.8a46.9,46.9,0,0,1,0,7.5C467.7,107.3,466.4,108.2,465.1,108.9Z" transform="translate(-258.8 -21.5)"/><path class="cls-3" d="M469.1,41.9c-.1-1-.2-2.1-.2-3.1V35.9c.1-1.5,0-3.1.2-4.7a2.3,2.3,0,0,1,2.8-1.8,12.7,12.7,0,0,1,1.8.6c2.8.8,2.8.7,2.8,4.1-3.7-.7-5.6.6-5.5,4.6C471,40,471,41.6,469.1,41.9Z" transform="translate(-258.8 -21.5)"/><path class="cls-3" d="M733,113.6a8.6,8.6,0,0,1,4.8,2.5,3.8,3.8,0,0,0,3.7,1.3l.3.3c.8,2.3-.5,3.8-2.2,4.6s-2.9-.9-3.9-2-3.4-3.4-3.2-6.1Z" transform="translate(-258.8 -21.5)"/><path class="cls-1" d="M476.6,104l-2.3,1.7c-.8.5-.8,1.1-.8,2s-1.2,2-2.6,2.1-.6-.9-.6-1.3c-.1-2.5,2.6-6.3,5.2-7,.3-.1.8.4,1.1.7A1.2,1.2,0,0,1,476.6,104Z" transform="translate(-258.8 -21.5)"/><path class="cls-3" d="M699.3,73.7a26.1,26.1,0,0,1-.6-2.7,28.3,28.3,0,0,0-3.2-12.1c-.9-1.6-1.1-2.9,1.3-3.3l.6.5c-.5,1-.7,2.2.3,3s1.7,3.2,1.7,5.1S699.3,70.6,699.3,73.7Z" transform="translate(-258.8 -21.5)"/><path class="cls-1" d="M343.2,117.5a41.1,41.1,0,0,1-6,.8,26.1,26.1,0,0,1-5.5-.8c1.3-2.7,4-2.1,6.1-2.5s3.1.5,4.6,1S342.9,117,343.2,117.5Z" transform="translate(-258.8 -21.5)"/><path class="cls-3" d="M530.3,136.8c-2.8-1.3-3-1.5-2.4-3.7a7.1,7.1,0,0,0,.2-4.1,5.2,5.2,0,0,1,2.2-5.8h.2c1.9,4.3,0,8.6.4,12.9Z" transform="translate(-258.8 -21.5)"/><path class="cls-3" d="M638,81.7l.9,3.2a18,18,0,0,0,.6,2.2c.5.9,1.2,1.6,2.3,1.3a2.6,2.6,0,0,0,1.8-1.2,21.7,21.7,0,0,0,1.2-3.6c.2-.6.5-1.1.7-1.7a12.2,12.2,0,0,1,0,3.3,10.5,10.5,0,0,1-1.9,3.8,2.7,2.7,0,0,1-3.4.8c-1.3-.6-2.2-1.4-2.2-2.8S638,83.5,638,81.7Z" transform="translate(-258.8 -21.5)"/><path class="cls-3" d="M319.1,117.6h9l-6.3,4.6a15.8,15.8,0,0,0-1.1-2.3A16,16,0,0,0,319.1,117.6Z" transform="translate(-258.8 -21.5)"/><path class="cls-3" d="M714.7,79.1c0-1,.1-1.9.1-2.8a12,12,0,0,1,7.5,0,25.3,25.3,0,0,1,.1,2.8l-.2.2c-2.5.1-4.9.8-7.3,0Z" transform="translate(-258.8 -21.5)"/><path class="cls-3" d="M786.5,136.8l3.2,3.6h-7.9c-1.2,0-1.6-.8-1.8-1.8l.2-.2c1.3-.5,2.8-.3,4-1.2S785.6,136.4,786.5,136.8Z" transform="translate(-258.8 -21.5)"/><path class="cls-3" d="M827.1,125.2a3,3,0,0,0-.1,3.8l-.2.3a2.9,2.9,0,0,1-2.4.1c-1.8-.9-4.5-1.6-3.2-4.3s3.6-2,5.6-.2Z" transform="translate(-258.8 -21.5)"/><path class="cls-3" d="M697.3,53.9c.7-3.5,1.3-7.1,2-10.6V53.8a1.9,1.9,0,0,1-1.9,2.3h0A2,2,0,0,1,697.3,53.9Z" transform="translate(-258.8 -21.5)"/><path class="cls-3" d="M588,140.6h-4.7l-.2-.2a6,6,0,0,1,1.8-5.7c1.5-.4,2,.8,2.7,1.7s1.4,2.5.7,3.9Z" transform="translate(-258.8 -21.5)"/><path class="cls-3" d="M653.4,37.5a33.5,33.5,0,0,1,0,14.1Z" transform="translate(-258.8 -21.5)"/><path class="cls-3" d="M810.6,33a6.7,6.7,0,0,1,.6-1.7c.6-.6,1.5-1.4,2.2-1.4s1.1,1.2,1.2,2.2V33l-.3.3a2.7,2.7,0,0,1-3.5-.1Z" transform="translate(-258.8 -21.5)"/><path class="cls-3" d="M776,86.6c1.3-1.9,2.6-3.8,3.8-5.7-.1,1-.1,2.1-.3,3.1C779.1,86.6,779.1,86.5,776,86.6Z" transform="translate(-258.8 -21.5)"/><path class="cls-3" d="M588.1,121.3h3.7l.2.2c.1,1.9-1,3.2-2.2,4.4-3-.1-3.3-.8-1.9-4.4Z" transform="translate(-258.8 -21.5)"/><path class="cls-3" d="M739.9,48.6c-.7,2.3-1.3,4.6-2,6.9,0-1.8-.1-3.7,0-5.6S738.9,48.5,739.9,48.6Z" transform="translate(-258.8 -21.5)"/><path class="cls-1" d="M359.5,117.5h-5.7c.9-2.1,2.7-2.1,4.6-1.7S359.4,116.7,359.5,117.5Z" transform="translate(-258.8 -21.5)"/><path class="cls-3" d="M741.6,44.6c-.5,1.3-1.1,2.6-1.7,3.9C738.5,45.7,738.6,45.4,741.6,44.6Z" transform="translate(-258.8 -21.5)"/><path class="cls-3" d="M814.6,90.7a8.7,8.7,0,0,1-1.1.9c-1.9,1.1-2,1-3.8-.9l.2-.3a3.8,3.8,0,0,1,4.5,0Z" transform="translate(-258.8 -21.5)"/><path class="cls-3" d="M422.8,40.7l1,1.9v2l-.9,1.9-.5-.5C421.6,44.1,421.4,42.4,422.8,40.7Z" transform="translate(-258.8 -21.5)"/><path class="cls-3" d="M601.6,85.6a6.8,6.8,0,0,0,4.6,1.1C603.9,88.3,603.1,88.1,601.6,85.6Z" transform="translate(-258.8 -21.5)"/><path class="cls-3" d="M476.6,104v-1.8h2.9c.9.5.9,1.3.8,2.2a7.8,7.8,0,0,1-3.4-.1Z" transform="translate(-258.8 -21.5)"/><path class="cls-3" d="M533.2,140.6c-2.2-.3-2.4-2.2-2.9-3.8l.3-.2c2.3.1,2.9,1.7,2.9,3.7Z" transform="translate(-258.8 -21.5)"/><path class="cls-3" d="M260.6,130l1-1a3.4,3.4,0,0,1,.1,4.8l-.2.2c-.4.2-.6.2-.9-.2Z" transform="translate(-258.8 -21.5)"/><path class="cls-3" d="M741.7,110.7c.6-.2,1-.5,1.1-.4a2.7,2.7,0,0,1,.6,1c.1.1-.3.4-.3.4Z" transform="translate(-258.8 -21.5)"/><path class="cls-3" d="M791.5,86.8c-1.4,1.1-1.4,1.1-2.9,0l.3-.3a2,2,0,0,1,2.5.1Z" transform="translate(-258.8 -21.5)"/><path class="cls-3" d="M655,90.4a17,17,0,0,0,1.9-1.9C656.8,90.3,656.8,90.3,655,90.4Z" transform="translate(-258.8 -21.5)"/><path class="cls-1" d="M260.6,133.8l.9.2v1.7C261,135.2,259.4,135.2,260.6,133.8Z" transform="translate(-258.8 -21.5)"/><path class="cls-3" d="M589,143.4l-.3.4.3-.4Z" transform="translate(-258.8 -21.5)"/><path class="cls-3" d="M694.6,140.6c-.3.6-.7.6-1,0l.2-.3.3-.2.3.3Z" transform="translate(-258.8 -21.5)"/><path class="cls-3" d="M732.1,112.7l.9.9-.3.3a1.2,1.2,0,0,1-.9-.9Z" transform="translate(-258.8 -21.5)"/><polygon class="cls-3" points="453.1 58.6 452.7 58.4 452.8 58.2 453.1 58.6"/><path class="cls-3" d="M638.9,34l-.4-.2.4.2Z" transform="translate(-258.8 -21.5)"/><path class="cls-3" d="M579.4,30.2l.2-.4-.2.4Z" transform="translate(-258.8 -21.5)"/><path class="cls-9" d="M469.1,41.9c.2-1.2.5-2.5.7-3.7s.1-1.9.3-2.9c.7-3,2.9-3.7,5.6-1.8l.8.6h0a4.4,4.4,0,0,1,0,4.8h.1c-.5,8.7-1,17.3-1.7,26-.5,6.1-1.7,12.1-2.1,18.3a.5.5,0,0,0-.1.7c-.6,2-.2,4.7-3.4,4.9s-3.4-2.6-4.1-4.7h0c-3.9-4.5-2.7-10.2-3.9-15.4h0c-.2-5.7-2.1-10.9-3.9-16.2a1.7,1.7,0,0,1-.3-1.7c-.2.6-.1,1.2-.5,1.7-.1,8.4-.2,16.9-.2,25.3,0,2,.1,3.9.1,5.8a4.6,4.6,0,0,1-.6,2.3,2.7,2.7,0,0,1-4.7.1,6.5,6.5,0,0,1-.8-2.7,111.7,111.7,0,0,1-.3-15.3c.4-10.1,1.8-20.1,2.4-30.1.1-1.6,0-3.2,1.1-4.5h.1a1.2,1.2,0,0,1,1.8-.1c.2.3.4.3.6.2a1.8,1.8,0,0,1,1.3.9h-.1c2.9,2.9,2.9,7,3.9,10.6h-.1c3.5,4.5,4.2,10.1,5.9,15.4a18.5,18.5,0,0,0,.1,2.3c.1.6,1-.2.4.1s.1.2-.2-.4a5.2,5.2,0,0,1-.3-1.8c-.2-6,1-11.8,2-17.7A.6.6,0,0,0,469.1,41.9Z" transform="translate(-258.8 -21.5)"/><path class="cls-2" d="M480.6,70.7a6.1,6.1,0,0,0,.5-1.8c.7-8.7,1.4-17.5,2-26.2.1-2.1.1-4.2.1-6.2s.6-3.2,3.3-3.6c5.3-.8,9.4,1.1,12.5,5.4,1.6,2.3,3,4.8,4.5,7.2h0a6.5,6.5,0,0,1,2.1,4.2c.6,9.9.9,19.8-3,29.2-3.1,7.4-8.6,11.2-16.1,11.2-4.1.1-6.8-2.3-7.3-6.5a25.1,25.1,0,0,1,1.3-11.2Z" transform="translate(-258.8 -21.5)"/><path class="cls-3" d="M480.5,72.4c0,3.8-.1,7.6-.1,11.5a5.1,5.1,0,0,0,1,3.5,5.6,5.6,0,0,0,5.8,2.4c6.3-1.1,11-4,13.6-10a39.5,39.5,0,0,0,3.4-13.4c.4-5,.3-10.1.3-15.2a56.7,56.7,0,0,0-1-5.7,5.2,5.2,0,0,0,4.5-3c.1-.5.4-1.1.7-1.2,2.9-.9,3-3.6,3.2-5.8s.4-2.5,2.1-2.7,1.3-1.1,1.4-1.8,1.2-1.9,2.6-1.8h2.4a2.9,2.9,0,0,1,2.4,1.2,17.9,17.9,0,0,0,2.2,2.5,5.1,5.1,0,0,1,1.6,3.9c-.1,3,.1,4-3.6,4-1.3,0-3,0-3.6.7a5.9,5.9,0,0,0-.7,4.9,6.2,6.2,0,0,1,.2,1.9l-.4.5c-2.9.7-3.6-1.1-3.3-3.2s1.1-6.1,4.6-7.3c1.8-.6,3.1-1.5,2-3.4s-2.5-1-3.8-.2c-6.8,4.3-7.7,14.3-1.8,19.4a9.9,9.9,0,0,1,2.9,3.8,23.5,23.5,0,0,1-1.2,21.6c-1.9,3.4-3.7,3.7-6.4,1.4-1.1-.9-2-2.5-3.6-1.2s-1.1,2.8-.4,4.3c2.2,4.7,7,5.6,11.3,2.5s4.3-6.6,7.1-9.4h.7c-.2,1.7-.5,3.4-.7,5.2a9.1,9.1,0,0,0,.1,2.3c.1.9-.2,1.6-1.2,1.6s-1.7.6-2,1.6a6.8,6.8,0,0,1-1,2.1,3.2,3.2,0,0,1-2,1l-9.6-.4a2.8,2.8,0,0,1-3-1.7,24.4,24.4,0,0,0-3.5-5.1,2.1,2.1,0,0,0-3.3.1l-.3.3-5.3,6.1-10.9.2a3.5,3.5,0,0,1-2.6-1.1c-1.6-2.1-4.2-3.6-3.7-6.9a3.9,3.9,0,0,0-.5-2.3c-.7-1.5-.2-2.7.9-3.9S479.7,73.7,480.5,72.4Z" transform="translate(-258.8 -21.5)"/><path class="cls-3" d="M419.1,54.2a6.3,6.3,0,0,1-2.2,5,1.6,1.6,0,0,0-.1,2.6c2.1,1.9,2.5,4.3,2.2,6.9s2.3,4.3,3.8,6.3a1.8,1.8,0,0,0,1.3.2l2.7-.8c2.1,2.6-.6,5.6.5,8.4,1.4-.5,1.2-2.5,2.7-2.9l.6.2-.6,6.4-1.7.3c-2.5-.1-4.7,0-6,2.6-.3.7-1.6,1-2.4,1.2s-2.5,0-3.6,0c-1.4-2.5-1-5.1-1.2-7.6l.7-.2c1.9.3,2.4,4.4,4.8,2.5s-.3-3.8-.9-5.7c-1.6-5-3.2-10-5-15s-1.3-7.1,3.8-10.7Z" transform="translate(-258.8 -21.5)"/><path class="cls-3" d="M415.1,83c-2.8-.6-3.7-1.3-3.3-3.5s-.8-4.7-.7-7.1c.1-.5-.9-1.2-1.5-1.5s-1.9.7-1.9,1.7c-.2,2.5-.2,5.1-.2,7.7s.2,3.8-.9,5.5h0a4.8,4.8,0,0,1-6-.2c-.4-.4-.5-1.1-.8-1.6l.3-.3c4.5-.3,5.4-3.1,4.7-7a38,38,0,0,1-.4-10.1c.2-2.2.9-4.1,3.5-4.5s3.5,1.6,4.1,3.7c1.2,4.3,2.5,8.6,3.6,12.9.4,1.4.8,2.8-.3,4.1Z" transform="translate(-258.8 -21.5)"/><path class="cls-3" d="M472.8,83c-.3-7.6.5-15,1.2-22.5l1.5-15.8c.2-2-.1-4.1,1.1-6,.1,5.7.3,11.5.4,17.2a3.7,3.7,0,0,1-.5,1.8c-1.2,1.8-.8,3.7-.5,5.6s.5,3.4.6,5.1a3.6,3.6,0,0,1-1.5,3.8,3,3,0,0,0-1.3,2.9v5.3A2.9,2.9,0,0,1,472.8,83Z" transform="translate(-258.8 -21.5)"/><path class="cls-3" d="M392.2,76.3a23.8,23.8,0,0,1-.1,3.8c-.5,2.8.2,6.1-3.1,7.7-.4.2-.4.9-.7,1.2s-.5,1-.9,1c-3.6.2-7.2.5-10.8.6s-3-.3-3.7-3.7v-.2c1.1-.8,2.1-.2,3.2.1,6.6,2.1,9.7.6,12.7-5.8.7-1.8.5-4.3,3.1-4.9Z" transform="translate(-258.8 -21.5)"/><path class="cls-3" d="M440.1,86.8a3.2,3.2,0,0,1-1.2-3.3,14.2,14.2,0,0,0-.4-7.9,3.7,3.7,0,0,1,.1-1.8c.1-.7.7-1.7-.4-1.9a3.1,3.1,0,0,0-2.1.8c-.4.3-.5,1.1-.9,1.6-1.3,2.1-2.2,4.5-4.6,5.8l-.2-.2c-1.8-6.6,2.3-11.6,8.9-11,1.6.1,2.7.9,2.5,2.3-.7,5.2.9,10.5-1.5,15.5Z" transform="translate(-258.8 -21.5)"/><path class="cls-3" d="M526.7,57.9l.3.3c1,1.1,2.5,2,2.7,3.2a65.4,65.4,0,0,1,.6,8.9,2.5,2.5,0,0,1-.8,1.7c-1.7,1.3-1.6,3.6-2.9,5.2l-.3-.2c-.2-.2-.5-.5-.5-.7-.1-6-.6-11.9.2-17.8Z" transform="translate(-258.8 -21.5)"/><path class="cls-3" d="M465.2,83.9a17.9,17.9,0,0,0,1.2,2.4c1.5,2.2,4.2,2,5.5-.5a13.1,13.1,0,0,0,.8-2.1,24,24,0,0,1,.3,3.7c-.4,3-1.5,3.9-4.3,3.5a8.6,8.6,0,0,1-2.3-.5,1.8,1.8,0,0,1-1.1-1.3A45.1,45.1,0,0,1,465.2,83.9Z" transform="translate(-258.8 -21.5)"/><path class="cls-3" d="M461.3,68.5c1.1,4.2,2.3,8.4,3.3,12.6a28,28,0,0,1,.6,2.8L463,83a2.2,2.2,0,0,1-1.7-2.5Z" transform="translate(-258.8 -21.5)"/><path class="cls-3" d="M518.9,48.3c2.5-.3,4.2,1.1,5.6,2.9s3.1,3.9,2.2,6.7l-.3.2c-3.5-2.4-5.1-6.3-7.7-9.5Z" transform="translate(-258.8 -21.5)"/><path class="cls-3" d="M476.5,38.8V34C478,36,478,36.7,476.5,38.8Z" transform="translate(-258.8 -21.5)"/><path class="cls-3" d="M406.6,85.8l.4.3-.4-.3Z" transform="translate(-258.8 -21.5)"/><path class="cls-10" d="M346.2,135.9a27,27,0,0,0,.9-11.3c0-.7-.9-1.1-1.3-.6a58.3,58.3,0,0,0-4.6,5.5,6.8,6.8,0,0,0-.7,3.2c-.1,2.3-.1,4.5-.2,6.7a4.6,4.6,0,0,1-.5,2.3,2,2,0,0,1-2.3,1.3,2.9,2.9,0,0,1-1.8-1.4,7.3,7.3,0,0,1-.4-3.3c.3-4.9.7-9.9,1-14.8a5.8,5.8,0,0,1,.3-1.4c.4-1.8,1.7-2.1,3.1-.9a12.4,12.4,0,0,1,1.3,1.5,14.1,14.1,0,0,1,1.8-2.3c3.4-3.3,5.9-3,9,.9l.5.6a14.6,14.6,0,0,1,2.1-1.6,7.2,7.2,0,0,1,11.4,4.8,16.1,16.1,0,0,1,0,3.8c-.2,3.5-.5,7-.7,10.5h0c-.6,1.9-2.1,2.3-3.8,1.7s-2.2-2.2-2.4-3.8c-.4-3.4.2-6.9-.6-10.5a20.7,20.7,0,0,0-5.4,9.8c-.2.8,0,1.6-.2,2.4s-.6,3.6-2.8,3.9-3.1-1.6-3.8-3.4h.1a2.2,2.2,0,0,1-.1-2.9A.8.8,0,0,0,346.2,135.9Z" transform="translate(-258.8 -21.5)"/><path class="cls-11" d="M395.9,139.5c-1.1.8-1.9,2.4-3.6,1.6s-2-2.3-1.9-4c.3-4.6.5-9.2.8-13.8.1-2.1.9-2.6,3.1-1.8s1.3.6,2-.2a13.1,13.1,0,0,1,2.5-2.2,9.4,9.4,0,0,1,5.4-1.7,4.7,4.7,0,0,1,4.8,3.2,20.6,20.6,0,0,1,1.2,6c.1,3.5-.1,7-.2,10.5a11.3,11.3,0,0,1-.3,1.8,2.7,2.7,0,0,1-4.8.8,22.5,22.5,0,0,1-1.2-2.1h.1a5.1,5.1,0,0,1-.1-4.8c0-.5.1-1,.1-1.5a15,15,0,0,0,.4-4.2c.1-2.8-1.3-3.2-3.6-2.2h.1a1.9,1.9,0,0,1-.9,1.1h0c-1.6,4.4-.7,9.5-3.9,13.5Z" transform="translate(-258.8 -21.5)"/><path class="cls-3" d="M346.1,139.5a13.7,13.7,0,0,0,1.7,2.3,2.4,2.4,0,0,0,3.9-1,12.9,12.9,0,0,0,.4-1.9c.2-4.4,2-8.3,3.6-12.3a8.6,8.6,0,0,1,1-1.6,2.1,2.1,0,0,1,2.6-.6,2.7,2.7,0,0,1,1.2,1.8c0,1.9-.4,3.8-.5,5.7s-.3,3.5-.3,5.3.5,2.9,2.1,3.5,2.3-.5,3.3-1.3a12.7,12.7,0,0,1-.2,2.8c-.4,2.3-2.2,3-3.8,1.2s-3.5-4-3-7.1a2.6,2.6,0,0,0-1.9-3.3c-1.2-.1-2.2,1-2.4,2.9a35.5,35.5,0,0,1-.6,4.7c-.7,2.8-1.6,3.3-4.8,3l-1.4-.2h0A6.6,6.6,0,0,1,346.1,139.5Z" transform="translate(-258.8 -21.5)"/><path class="cls-3" d="M415.1,131.9c.1-1.3.1-2.5.1-3.8s-.6-5-.6-5.6.3-.8.6-1.2h.1c2,.9,3.3-.7,4.8-1.5s3.9-1.6,5.3.8-.3,3.4-2.1,4.2c-3.4,1.5-5,4.9-7.5,7.2Z" transform="translate(-258.8 -21.5)"/><path class="cls-3" d="M395.9,139.6c.7-3.3,1.3-6.5,2.1-9.7a32.6,32.6,0,0,1,1.8-3.8,20.5,20.5,0,0,0,.1,4.3C400.8,134.5,399.2,137.3,395.9,139.6Z" transform="translate(-258.8 -21.5)"/><path class="cls-3" d="M400.6,125a11.4,11.4,0,0,1,1.7-1.5,1.3,1.3,0,0,1,1.9.8c.4,2.4.6,4.8-.4,7.1-.1-1.1-.1-2.2-.1-3.3S403.5,125.7,400.6,125Z" transform="translate(-258.8 -21.5)"/><path class="cls-3" d="M403.7,132.9c0,1.6,0,3.2.1,4.8C402.2,136.1,402.3,134.5,403.7,132.9Z" transform="translate(-258.8 -21.5)"/><path class="cls-3" d="M289.5,142.6c.2.6.5,1,.4,1l-1,.7s-.4-.3-.3-.3A5.5,5.5,0,0,1,289.5,142.6Z" transform="translate(-258.8 -21.5)"/><path class="cls-3" d="M415.2,134.8c-1.1-1.4-1.1-1.4-.1-2.9h.2a2,2,0,0,1,.1,2.6Z" transform="translate(-258.8 -21.5)"/><path class="cls-3" d="M346.1,136.7a28.1,28.1,0,0,0,.1,2.9C344.9,138.2,344.9,138.2,346.1,136.7Z" transform="translate(-258.8 -21.5)"/><polygon class="cls-3" points="145.9 122 145.6 122.4 145.5 122.2 145.9 122"/><path class="cls-3" d="M347,143.4l-.2.4.2-.4Z" transform="translate(-258.8 -21.5)"/><path class="cls-3" d="M399.8,126.1l.9-1.1Z" transform="translate(-258.8 -21.5)"/><path class="cls-12" d="M766.9,68.7c.5-3.8.9-7.6,1.6-11.3a30.2,30.2,0,0,1,3.8-9.7c.6-1.1,1.3-1.1,2.3-.4a5.3,5.3,0,0,1,2.6,3.9c1,8.5.7,16.8-2.3,24.9a29.4,29.4,0,0,1-2.5,4.6,1.7,1.7,0,0,1-2.5.4,4.9,4.9,0,0,1-2.6-4.3c-.2-2.7-.1-5.4-.1-8Z" transform="translate(-258.8 -21.5)"/><path class="cls-13" d="M760.7,79.2H759a13.4,13.4,0,0,1,.7-1.8c.1-.2.4-.3.7-.5s.3.5.4.8S760.7,78.7,760.7,79.2Z" transform="translate(-258.8 -21.5)"/><path class="cls-14" d="M791.4,86.6h-2.5c-1.8-1.8-1.8-4.1-1.8-6.3-.2-8.3-.3-16.6-.4-24.9,0-4.2,0-8.3-.1-12.5s1.1-3.5,3.9-2.4l.8.5a8.3,8.3,0,0,0,.9,1.6,48.4,48.4,0,0,1,7.3,13.4l1.1,2a9.6,9.6,0,0,0,1.5-2.2,65.9,65.9,0,0,0,5.8-16.1c.6-2.3,1.2-4.6,2.9-6.4h3.5a8.1,8.1,0,0,1,1.5,4.5,120.5,120.5,0,0,1,.2,19c-.2,4.3-.2,8.6-.2,12.9V85a8.6,8.6,0,0,1-1.4,5.4h-4.5c-1.3-1.7-1.4-3.8-1.4-5.9.1-8.7.1-17.5.1-26.3-1.1-.3-1.2.6-1.5,1.2l-2.5,5.2a11.3,11.3,0,0,1-1.2,2.1c-1.9,2.4-4.7,2.3-6.4-.3a19.8,19.8,0,0,1-1.6-3.9c-.7-1.6-1.2-3.3-1.8-4.9a3.5,3.5,0,0,0-.5-.8c-1-.1-.7.8-.7,1.3l.6,14.7.3,9.1A5.9,5.9,0,0,1,791.4,86.6Z" transform="translate(-258.8 -21.5)"/><path class="cls-9" d="M314.5,82.8a14.5,14.5,0,0,1-.9-2.2c-.8-3.3-.7-6.4,2-9,.3.1.5.1.7-.2a1.3,1.3,0,0,1,1.9.1h0c2.2-.2,1.9,3.9,4.1,2.8s1.5-3.6,1.8-5.7a19.2,19.2,0,0,0-1-9.8h.1c-2.2-1.6-4.2-3.3-6.9-4-4.3-1.2-4.1-5.2-4.7-8.6V44c.8-2.5.3-5.1.8-7.6s3.5-6.4,6.5-8.4,7.2-.6,9,2.7,1.1,5.6.9,8.4a3.1,3.1,0,0,1-3.1,3.1c-1.8.2-2.4-1.2-2.8-2.7s0-2.2-.9-3.1c-3.4,3.6-3.4,7.4,0,12.1h0c4.9.8,7.7,3.8,8.7,8.6h0c4.9,7.9,2.7,20.3-4.5,25.8-4,3-7.6,3-11.7-.1Z" transform="translate(-258.8 -21.5)"/><path class="cls-3" d="M322,48.5c-3.5-.9-3.7-1.1-3.8-3.8s-.1-6.7,2-9.6a9,9,0,0,1,1.6-1.8,1.1,1.1,0,0,1,1.6.5c.2,1.1.4,2.2.5,3.3s.2,2.5.5,3.7,1,1,1.4,1a1.9,1.9,0,0,0,1.4-1,17.2,17.2,0,0,0,.1-9c-1.2-3.7-4.7-5-8-3a11.5,11.5,0,0,0-4.8,5.2,46.5,46.5,0,0,0-2.1,6.3c-.3,1.2-.5,2.4-.8,3.7,0-2.4-.2-4.8,0-7.2s.5-5.4,3.3-7a4,4,0,0,0,1.3-1.3c1.9-3.4,5.2-3.4,8.4-3A6.3,6.3,0,0,1,327,27a12.6,12.6,0,0,0,2.4,2.2,1.9,1.9,0,0,1,1.1,2.7,9.1,9.1,0,0,0,0,6.1c.7,2.3-.8,4.6-3.2,5.6S322.4,45.4,322,48.5Z" transform="translate(-258.8 -21.5)"/><path class="cls-3" d="M314.5,82.8c6.2,3.7,16-.7,17.2-10.1a36.7,36.7,0,0,0-.5-12.8c-.2-1-.4-1.9-.5-2.8l1.3.6a3.5,3.5,0,0,1,2.6,4c-.2,1.3-.3,2.6-.4,3.8a4.1,4.1,0,0,0-.1,1.9c.8,4.3-.9,8.1-3,11.7-.4.6-1.1,1.1-1.6,1.7s-1.6,1.3-1.9,2.1c-1.6,3.6-4.5,4.3-7.9,3.9h-.5c-2.5.4-3.9-.7-4.4-3.1Z" transform="translate(-258.8 -21.5)"/><path class="cls-3" d="M323.1,58.8a10,10,0,0,1,1.3,2.5,30.3,30.3,0,0,1,.8,10.4,6.7,6.7,0,0,1-2.4,4.6c-1,.8-2.7,1.3-3,.7a5.4,5.4,0,0,1,0-2.2c.2-1.4-.9-2.3-1.6-3.3,1.4-.2,3.1.1,4-.6s.7-2.6,1.2-3.8a6.3,6.3,0,0,0,.1-3.6A24.2,24.2,0,0,1,323.1,58.8Z" transform="translate(-258.8 -21.5)"/><path class="cls-3" d="M311.6,46.2a13.4,13.4,0,0,1,.7,1.8,8.6,8.6,0,0,0,5.5,6.6l3.4,1.7a3.4,3.4,0,0,1,2,2.5c-1.1.1-2.3.3-3-.9s-2.2-1.9-4.1-1.3-2.9.1-3.6-2.4A19.8,19.8,0,0,1,311.6,46.2Z" transform="translate(-258.8 -21.5)"/><path class="cls-3" d="M330.7,57.1a18.2,18.2,0,0,0-8.7-8.6,30.8,30.8,0,0,1,4.3,0,4.7,4.7,0,0,1,4.3,4.3A30.9,30.9,0,0,1,330.7,57.1Z" transform="translate(-258.8 -21.5)"/><path class="cls-3" d="M318.2,71.5h-1.9C317,70.5,317.6,70.4,318.2,71.5Z" transform="translate(-258.8 -21.5)"/><path class="cls-9" d="M488.2,121.4l4.8-4.6a5.8,5.8,0,0,1,4.9-1.3,5.2,5.2,0,0,1,4.6,5.7,20,20,0,0,1-2,5.3c-.5.9-1.1,1.5-.3,2.5,2,2.5,1.9,5.4,1.5,8.3a7.2,7.2,0,0,1-6.3,6.2c-3.7.6-6.5-.6-8.1-3.6-.5-1-.8-2.1-1.3-3.4l-3,2.6c-6.4,5.6-13.4.6-14.9-5.2s2.2-12.8,7-15.1a4.7,4.7,0,0,1,5.3.6,4.5,4.5,0,0,1,1.4,5.2c-.9,3.1-3.2,5-5.9,6.6-.8.5-2.5.4-2,2.1a3.4,3.4,0,0,0,3.2,2.5,2.8,2.8,0,0,0,1.8-.4,21.4,21.4,0,0,0,6.8-5.9c.3-.3.7-.8.6-1.2-.1-2.6,1.4-4.6,2-6.9Z" transform="translate(-258.8 -21.5)"/><path class="cls-6" d="M440.9,140.3c-4.9.2-7-1.4-7.5-6.2a48.1,48.1,0,0,1,1.3-15.1c.3-1.3.9-1.5,3.4-1.4.1,2.1.3,4.2.3,6.2s0,5.1.1,7.7c0,1-.1,2.6,1.2,2.7s1.7-1.2,2.3-2a16.1,16.1,0,0,0,2.9-9c.1-1.4.1-2.9.2-4.3a2.9,2.9,0,0,1,5.4-.8,9.7,9.7,0,0,1,.7,3.7c-.1,4.5-.5,8.9.3,13.4.3,1.4-.5,2.4-1.7,3.1a2.7,2.7,0,0,1-3.1-.6l-1.8-1.6Z" transform="translate(-258.8 -21.5)"/><path class="cls-15" d="M457.5,134.6a.5.5,0,0,0-.1-.8l.3-13.9c.1-1.6,0-3-1.4-4.2s-1-2,.2-2.9a4.3,4.3,0,0,0,1.8-4c-.1-2.3,0-4.5,0-6.8a12.1,12.1,0,0,1,.5-1.8,1.5,1.5,0,0,1,2.1-.4,5,5,0,0,1,1.3,1.9c.4,2.5.7,5,1,7.6s.7,1.6,1.9,1.6h4.8a5.7,5.7,0,0,1,1.8.3,1.8,1.8,0,0,1,.8,1.1,1.5,1.5,0,0,1-.5,1.3,32.9,32.9,0,0,1-4.4,1.6,37.5,37.5,0,0,1-3.9.9,31.1,31.1,0,0,0-.4,3.2c.1,5.4-.1,10.9,1.1,16.2a7.6,7.6,0,0,1,.1,1.5,2.6,2.6,0,0,1-1.7,2.6,2.9,2.9,0,0,1-3.4-1.1C458.7,137.2,458.2,135.9,457.5,134.6Z" transform="translate(-258.8 -21.5)"/><path class="cls-16" d="M476.9,104.3a2.2,2.2,0,0,1,3.4.1.4.4,0,0,0,0,.6c-.5,1.4-.9,2.7-1.5,4a6.3,6.3,0,0,1-1.6,2.3,1.7,1.7,0,0,1-1.7.3,2.3,2.3,0,0,1-.6-1.5,13.4,13.4,0,0,1,.7-1.8C476.1,107,476.5,105.6,476.9,104.3Z" transform="translate(-258.8 -21.5)"/><path class="cls-9" d="M392,76.1c-.8,2-1.6,4.1-2.5,6.1-3.6,7.5-7.6,8.9-15.2,5l-1.3-.5c-3.5-3.4-4.8-7.8-4.8-12.5s.4-10.5.6-15.7c.1-2.1.3-4.1.4-6.2h0c.9-5.5,1.2-11.1,4.5-16.1,2.2-3.5,4.6-6.3,8.8-7h.1c2.2-1.7,4.4-1.5,6.6.1h0q6.3,3.4,3.9,8.7c-1.2,2.7-2.7,3.3-4.7.7h0c-1-1.1-.4-3.4-2.7-3.4a5.1,5.1,0,0,0-4.5,3c-2.1,3.8-2.3,8.2-4.4,11.9a.5.5,0,0,0-.1.7,181.7,181.7,0,0,0,0,26.6c-.2.2-.1.4.1.6a2.7,2.7,0,0,0,1.3,2.4c2.3,1.8,3.5,1.7,5-.8a22.9,22.9,0,0,0,3.3-8.8c.3-1.8.1-2.1-1.7-2.8a5.1,5.1,0,0,1-1.7-.7,4.1,4.1,0,0,1-1.3-1.9c-.2-1,.6-1.7,1.5-2.2a.5.5,0,0,1,.4-.2c3.4-.5,6.9-1.1,10.3-1.4a2.6,2.6,0,0,1,2.8,2.2,2.8,2.8,0,0,1-1.4,2.8,5.2,5.2,0,0,1-1.3.6,1.9,1.9,0,0,0-1.5,2.1C392.4,71.7,392.2,73.9,392,76.1Z" transform="translate(-258.8 -21.5)"/><path class="cls-3" d="M382.5,29.2c-5.5,2.6-8.6,7.2-10.4,12.8-.8,2.6-1.4,5.4-2.1,8.1-.2.8-.6,1.5-.8,2.2.1-3.3-.6-6.7.5-9.9a2.2,2.2,0,0,0-.1-1.4c-.9-1.9,0-3,1.6-3.8s1.5-1.1,1.6-1.7,1.6-2.2,2.3-3.4C376.9,29.2,379.5,28.9,382.5,29.2Z" transform="translate(-258.8 -21.5)"/><path class="cls-3" d="M376.8,50.3a25.1,25.1,0,0,1,3.6-12.2c1.2-2.1,2.9-3.8,5.5-4.1s2.5.4,2.6,1.9a14.3,14.3,0,0,1-.1,2.9l-.4-.3c-1-1.4-2.5-2.2-4.1-1.4a4.5,4.5,0,0,0-2.9,4.4C381.2,45.2,380,48.3,376.8,50.3Z" transform="translate(-258.8 -21.5)"/><path class="cls-3" d="M388.4,38.7l.7.6c1.7.8,2.6.6,3-.9,1-3.2,1-6.3-2.3-8.4l-.6-.7c.8.1,1.7-.1,2.2.3a29.6,29.6,0,0,1,4,3.9,1.9,1.9,0,0,1,.5,1.3c.2,2.8-3.2,6.2-6,5.8C388.8,40.5,388.4,39.7,388.4,38.7Z" transform="translate(-258.8 -21.5)"/><path class="cls-3" d="M376.7,77.6a21.2,21.2,0,0,1-.9-3.1,168.2,168.2,0,0,1,.2-21.3,18.7,18.7,0,0,1,.7-2.2Z" transform="translate(-258.8 -21.5)"/><path class="cls-3" d="M389.2,29.3h-6.6c.2-.9.2-2,.8-2.6a3.6,3.6,0,0,1,3.5-1.1,2.1,2.1,0,0,1,1.1.7C388.5,27.2,388.8,28.3,389.2,29.3Z" transform="translate(-258.8 -21.5)"/><path class="cls-3" d="M400.8,30.2l-.4-.3.4.3Z" transform="translate(-258.8 -21.5)"/><path class="cls-6" d="M380.7,119.5c1.1-.7,2.2-1.4,3.5-.8a3.7,3.7,0,0,1,2,3.1,11.1,11.1,0,0,1,.2,1.9l.3,14.7a2.8,2.8,0,0,1-1.4,2.8,2.7,2.7,0,0,1-3.1-.3l-.8-.7-1.1-1.2-2,1.9a4.8,4.8,0,0,1-7.3-1.3,27.6,27.6,0,0,1-1.8-3.9c.2-4,.3-7.9.5-11.9a5.8,5.8,0,0,1,.3-1.9,3.3,3.3,0,0,1,1.7-1.4,1.8,1.8,0,0,1,2.3,1.1,9.4,9.4,0,0,1,.6,2.8c.1,1.6-.1,3.2,0,4.8s.1,3.5.2,5.2.2,1.9,1.1,1.8,1.4-.8,1.7-1.4a32,32,0,0,0,2.3-6.8A58.3,58.3,0,0,0,380.7,119.5Z" transform="translate(-258.8 -21.5)"/><path class="cls-15" d="M293.6,117.7c.3.1.5.1.6-.2a14.2,14.2,0,0,0,2.9-.2,4.1,4.1,0,0,1,4.6,2.6c2.1,3.9,1.9,8,.6,12.1-.4,1.5-1.1,3-1.6,4.5l-2.6,2.8c-4.1,3.7-8.8,1.2-10.4-2.2a10.3,10.3,0,0,1-.9-6C287.7,126,289.5,121.2,293.6,117.7Z" transform="translate(-258.8 -21.5)"/><path class="cls-14" d="M572.6,66.6a38.1,38.1,0,0,0-1.3,4.5c-.9,4.9-1.8,9.8-2.6,14.6l-1.1,2.1a3.6,3.6,0,0,1-3.9,2.1,3.7,3.7,0,0,1-3.1-2.6A11.2,11.2,0,0,1,560,85c-.3-2.4-.6-4.8-.7-7.2-.4-6.5-.6-13-1-19.6-.1-2,.2-4.1-.9-6-.6-4.1-1.2-8.2-1.7-12.3-.1-1.4-.3-2.8-.3-4.2a1.7,1.7,0,0,1,2-1.6,10.6,10.6,0,0,1,3.4,1.6,2.2,2.2,0,0,1,.9,2.9,5.9,5.9,0,0,0-.1,3.7c1.5,6.5,2.9,13,4.3,19.6.6.3.5.9.4,1.5a3,3,0,0,1,.5-1.6c1.9-6.8,3.9-13.5,4.8-20.5a55.4,55.4,0,0,1,1.1-5.6c.3-.9.6-1.8,1-2.7a3.1,3.1,0,0,1,3.1-1.7,3.3,3.3,0,0,1,2.6,3.1,18.8,18.8,0,0,1-.5,3.3l-6.3,27.5A6.5,6.5,0,0,0,572.6,66.6Z" transform="translate(-258.8 -21.5)"/><path class="cls-9" d="M587.2,34.1c1.4-.2,2.8-.7,3.8.9a8,8,0,0,0,2.1,2,10.6,10.6,0,0,1,4.6,9.5c-.1,5.3-.5,10.5-.8,15.8s-2.3,12.5-4.9,18.4a15.7,15.7,0,0,1-1.9,3.3c-1.4,1.9-3.4,2.2-5.5,1.1a10.5,10.5,0,0,1-5.2-7.1,44,44,0,0,1-1.6-9.4,67.5,67.5,0,0,1,1.9-19,47.2,47.2,0,0,1,7.4-15.5Z" transform="translate(-258.8 -21.5)"/><path class="cls-17" d="M566.8,61.8c-.1.5-.3,1.1-.4,1.6l-.5-1.5Z" transform="translate(-258.8 -21.5)"/><path class="cls-18" d="M697.3,53.9a16.2,16.2,0,0,1,.1,2.2c-1.7.5-1.7.5-1.9,2.8-2-1.6-3.7-3.5-6.3-4.1a2.1,2.1,0,0,1-1.5-2.2,28.5,28.5,0,0,1,2.7-14.4c.8-1.5,2.2-1.5,2.9-.1a10.2,10.2,0,0,1,1.2,4.1c.1,3-.2,6-.4,9,0,.6-.3,1.2-.3,1.9s-.2,1.6.7,2a1.6,1.6,0,0,0,2.1-.6Z" transform="translate(-258.8 -21.5)"/><path class="cls-11" d="M677.1,140.4a17,17,0,0,1-8.6,2c-3.7-.4-5.4-3.8-3.8-7.1a11.2,11.2,0,0,1,4.7-4.7l2.5-1.3c2.8-1.2,2.9-1.2,2.1-5.2-1.4.9-2.7,1.9-4,2.6s-1.5.3-1.7,0-.9-1.6-.6-2.1a11,11,0,0,1,6.4-6.1,3.8,3.8,0,0,1,5.2,2.7,21.4,21.4,0,0,1,.7,4.3c.1,2.2-.1,4.5.1,6.7a9.6,9.6,0,0,1-2.9,8.2Z" transform="translate(-258.8 -21.5)"/><path class="cls-19" d="M694.4,140.4l-.3-.2h-.3l-2.5-2.7c-1,1-1.8,2-2.6,2.7s-4.3,1.5-5.7-.8a6.3,6.3,0,0,1-.8-2.3,34.9,34.9,0,0,1,1.7-13.6c.1-.3.2-.7.4-.8s1.2-.7,1.7-.6a1.9,1.9,0,0,1,1.4,1,16.1,16.1,0,0,1,.1,3.8c-.1,2.5-.3,5.1-.6,8,2.6-1,3.2-2.9,3.7-4.8a13.7,13.7,0,0,0,.2-2.9,20,20,0,0,1,.4-2.4,2.4,2.4,0,0,1,2.3-2c1.1-.1,2.1.9,2.2,2.5.3,3.9.5,7.7.8,11.5A3.6,3.6,0,0,1,694.4,140.4Z" transform="translate(-258.8 -21.5)"/><path class="cls-20" d="M710.6,133.1a16.4,16.4,0,0,1,1.4,3,2.4,2.4,0,0,1-3.6,2.8l-2.8-2c-.6,1.4-1,2.5-1.6,3.6s-1.7,2.3-4.5.9c-.2-2.6,1.1-4.7,2.2-6.8a3.8,3.8,0,0,0-.3-4.4l-2.1-3.2a1.8,1.8,0,0,1-.2-2.2,2.2,2.2,0,0,1,2.6-.7,13.2,13.2,0,0,1,2,1.2l1.7,1.5,2.4-3.5a9.5,9.5,0,0,1,1.9-2.1,1.5,1.5,0,0,1,1.3-.1,2.4,2.4,0,0,1,1,1.5,5.9,5.9,0,0,1-.5,2.2c-.6,1.3-1.4,2.6-2,3.9S708.5,130.8,710.6,133.1Z" transform="translate(-258.8 -21.5)"/><path class="cls-21" d="M731.8,113l.9.9c1.7,2.5,3.4,5,5.3,7.4a.9.9,0,0,0,1.6,0c.8-1.1,1.5-2.4,2.2-3.6l3.6-4.4a13.7,13.7,0,0,1,1.6-1.8,2.2,2.2,0,0,1,3,.5,7.3,7.3,0,0,1,.9,3.2c.2,7.8.2,15.6.2,23.5a4.2,4.2,0,0,1-.5,2.2,2.1,2.1,0,0,1-2.3,1.4,3.4,3.4,0,0,1-2.2-1.5,6.8,6.8,0,0,1-.6-3.2c-.1-4.3,0-8.6,0-12.9V122c-1.8.8-2.2,2.2-3,3.3-2,2.6-3.2,2.8-6,1a8.8,8.8,0,0,1-1.5-1.2c-2.2-.3-1.5,1-1.2,2.1,0,2.8.1,5.7.2,8.6a17.6,17.6,0,0,1,0,2.3,2.8,2.8,0,0,1-2.5,2.5,2.9,2.9,0,0,1-3.2-1.5,12.7,12.7,0,0,1-.9-4.2c-.1-6.6-.1-13.3-.1-20a2.8,2.8,0,0,1,.1-.9c.2-1.6,1.5-2.3,3.1-1.7Z" transform="translate(-258.8 -21.5)"/><path class="cls-22" d="M784.9,137.7c-2,2.2-2,2.2-4.7.8-.2-2.7-.3-5.5-.5-8.2a3.1,3.1,0,0,0-.9-2c-1-.6-1.7.4-2.3,1s-2.6,3.3-2.3,5.6a5.3,5.3,0,0,1-.3,2.8,2.3,2.3,0,0,1-1.7,1.3,2.7,2.7,0,0,1-1.9-1.1,4.2,4.2,0,0,1-.5-2.2c-.1-3.1-.2-6.1-.2-9.2a11,11,0,0,1,.2-1.8,1.6,1.6,0,0,1,2.6-.9c1,.9,1.5,1.3,2.7.3,2.9-2.3,5.8-2.4,8.6.3l1.2,5.5C786.2,132.5,785.7,135.1,784.9,137.7Z" transform="translate(-258.8 -21.5)"/><path class="cls-23" d="M768.3,129.6c-.2,3.4-1,6.1-3,8.4s-6.5,3.3-9.1.3a8.2,8.2,0,0,1-2-4.2,11.1,11.1,0,0,1,2-8.6c3.2-4.6,8.7-4.1,11.1.9C767.8,127.5,768,128.8,768.3,129.6Z" transform="translate(-258.8 -21.5)"/><path class="cls-24" d="M733.8,127.2a6.1,6.1,0,0,1-.7-1.7,2.6,2.6,0,0,1,.3-1.7c.9-.2,1.4.5,1.6,1.3S734.2,126.5,733.8,127.2Z" transform="translate(-258.8 -21.5)"/><path class="cls-9" d="M292.4,34c3.3-3.7,7.8-3.8,12.3-3.7a3.1,3.1,0,0,1,3,3.2,3.6,3.6,0,0,1-3.3,3.4h-.5c-1.8-.1-3.8-.5-5.5.6,0,1.8-.2,3.5-.1,5.3,0,4.1.2,8.2.3,12.4,0,1.1.3,1.8,1.6,1.8l3.3.2a1.8,1.8,0,0,1,2,1.6,2,2,0,0,1-1.3,2.3c-1.2.6-2.4,1-3.6,1.5s-2.5.8-2.3,3.3.6,7.3,1,10.9a1.4,1.4,0,0,0,1.7,1.3,55.8,55.8,0,0,1,5.7-.8,2.7,2.7,0,0,1,3,1.9,3.2,3.2,0,0,1-1.3,3.7,18.6,18.6,0,0,1-4.3,2,35.6,35.6,0,0,1-5.6,1.5c-3.1.5-5.5-1-5.9-4.1-1-6.5-1.7-13-.8-19.6.4-3.4.4-7,.6-10.5V50.7a42.6,42.6,0,0,0-.1-13.8h0a2.3,2.3,0,0,1,.1-2.9Z" transform="translate(-258.8 -21.5)"/><path class="cls-3" d="M292.3,36.9c.3.4.7.7.7,1.1.1,4.3.5,8.5-.6,12.7C292.4,46.1,292.4,41.5,292.3,36.9Z" transform="translate(-258.8 -21.5)"/><path class="cls-3" d="M292.4,34c0,1-.1,1.9-.1,2.9C291.1,35.4,291.1,35.4,292.4,34Z" transform="translate(-258.8 -21.5)"/><path class="cls-9" d="M288.3,82.7l-8,1.7c-3.6.7-6.1-1-6.1-4.7-.1-7.3-.1-14.7.1-22s.5-12.5.8-18.7c.1-1.2.1-2.5.2-3.8a3,3,0,0,1,2.2-2.8c1.3-.4,2,.6,2.8,1.4l.3.3.3,24.9c0,4.6-.1,9.3,0,13.9,0,1.1.1,2.2.2,3.3h4.5c3.7.1,4.9,2.2,3.2,5.7A3.5,3.5,0,0,1,288.3,82.7Z" transform="translate(-258.8 -21.5)"/><path class="cls-20" d="M826.8,124.9l-1.8-.5c-1.6-.4-2.1-.2-3.1,1.2s-.5,1.2.2,1.6l4.7,2.1a9.4,9.4,0,0,1,1.5,5.4,7.4,7.4,0,0,1-4.6,7.1c-3.1,1.5-5.6.2-6.2-3.3a12,12,0,0,1,0-1.9h-.1c1.3-.5,2.4-1.8,3.9-.6s1.2.7,1.6,0a2.4,2.4,0,0,0,.2-2.7,3.1,3.1,0,0,0-1.1-.9l-1.8-.7c-3.5-1.4-5.4-4.6-1.9-8.8a10.8,10.8,0,0,1,3.8-2.8,4,4,0,0,1,4.8.7C828.1,122.3,827.4,123.6,826.8,124.9Z" transform="translate(-258.8 -21.5)"/><path class="cls-25" d="M817.5,136.6a41.1,41.1,0,0,1-3,2.9c-3.2,2.8-7,2.3-9.5-1.1-3.8-5.1-.6-13.5,3.5-15.5a3.1,3.1,0,0,1,4.7,3.2,11.4,11.4,0,0,1-2.2,5.2l-1.9,2.1a1.6,1.6,0,0,0,.3,2.2c.5.6,1.2,1.1,2,.7s2.1-1.4,3.2-2.1,2.4-.4,2.8,1.6v.9Z" transform="translate(-258.8 -21.5)"/><path class="cls-9" d="M630.2,33c3.2,5.6,2.4,11.4.8,17.2a.9.9,0,0,1-.5.7,2,2,0,0,1-1.3.2.9.9,0,0,1-.7-.6c0-1.1,0-2.2-.1-3.3-.1-2.7-.1-5.4-.3-8.1a2,2,0,0,0-1-1.5c-.4-.1-1.2.4-1.5.8A20.2,20.2,0,0,0,621.7,50a2.9,2.9,0,0,0,2,3c5.5,2.2,7.7,6.8,8.7,12.2a28,28,0,0,1,.1,10,17.9,17.9,0,0,1-6.3,10.4c-2.3.6-4.6,1.4-7,1.8a7.7,7.7,0,0,1-8.1-10.6,5.5,5.5,0,0,1,1.5-1.9,2.6,2.6,0,0,1,4.1,1.5c.2.6.1,1.3.3,1.9a1.8,1.8,0,0,0,2.4,1.6,6.2,6.2,0,0,0,5.4-4.8,18.3,18.3,0,0,0-.9-12.6,6,6,0,0,0-2.9-3c-4.5-2.4-5.7-6.2-5.1-10.9a29.1,29.1,0,0,1,4.3-11.7,8.4,8.4,0,0,1,1.5-1.8C624.1,32.5,626.8,31.3,630.2,33Z" transform="translate(-258.8 -21.5)"/><path class="cls-9" d="M440.3,86.7c.2-5.3.3-10.5.5-15.8,0-1-.6-1.3-1.6-1l-5.4,1.7a2.3,2.3,0,0,0-2,1.8c-.5,2.2-1,4.3-1.4,6.5s-1.2,3.2-1.9,4.8a1.9,1.9,0,0,1-1.4.9,1.3,1.3,0,0,1-1.4-1.5,43.8,43.8,0,0,1,.4-5.1c.2-1.5.5-3.1.7-4.6h0c1-4.9.4-10.2,3.7-14.5a.4.4,0,0,0,.2-.6c1.5-4.8.6-10.3,3.8-14.7h0c.9-2.5,1.9-5,2.7-7.5a15.1,15.1,0,0,1,3.8-5.5c2.1-2,4.8-1.4,5.6,1.4a41,41,0,0,1,1.1,6.1,30.2,30.2,0,0,1,.2,4.3c0,13.8-.1,27.7-.2,41.5a11.5,11.5,0,0,1-.1,1.9,3.5,3.5,0,0,1-2.6,3.1,3.2,3.2,0,0,1-3.7-1.6A14,14,0,0,1,440.3,86.7Z" transform="translate(-258.8 -21.5)"/><path class="cls-26" d="M456.6,52.3l.3-1.6c.2.5.3,1,.5,1.6Z" transform="translate(-258.8 -21.5)"/><path class="cls-27" d="M533.5,140.3l-2.9-3.7a18.7,18.7,0,0,1-.3-11,16.4,16.4,0,0,0,.2-2.3c.7-1.6,1.3-3.2,2-4.7a24.7,24.7,0,0,1,5.5-7.7c2-1.9,4.3-3.2,7.2-3a12,12,0,0,0,3.8-.3c3-.9,5.3.1,7.2,2.3a9.4,9.4,0,0,0,1,1c2.1,6.4,1.6,12.9-.1,19.3a18.2,18.2,0,0,1-4,7.5,14.8,14.8,0,0,1-17.9,3.4Z" transform="translate(-258.8 -21.5)"/><path class="cls-25" d="M573.6,130.9c-.1,2.4,0,4.2-.2,5.9a2.7,2.7,0,0,1-3.4,2.4,2.7,2.7,0,0,0-2.6.5,10,10,0,0,1-2.1,1,4.4,4.4,0,0,1-5.6-3.1,6.5,6.5,0,0,1-.4-1.9c.3-3.6.5-7.3.8-10.9A1.9,1.9,0,0,1,562,123a2.2,2.2,0,0,1,2.1,1.7,46,46,0,0,1,.6,5.2c.2,1.3.1,2.6.2,3.8s.3.6.5.6a.8.8,0,0,0,.8-.3,26.2,26.2,0,0,0,1.5-3.9c.2-1.2.1-2.5.2-3.8a8.5,8.5,0,0,1,.4-2.3,2.2,2.2,0,0,1,2.5-1.7,2,2,0,0,1,2,1.7C573.2,126.5,573.4,129,573.6,130.9Z" transform="translate(-258.8 -21.5)"/><path class="cls-7" d="M587.9,121.5l.3,2.7c.2,1.3.1,1.3,1.6.7,1.5,3.3-.3,5.7-2,8.1-.7-.6-1.4-.1-2.5,2s-1.5,3.6-2.2,5.4c-3.7.2-4.6-.1-5.6-3s-1.2-5-1.8-7.5c-.2-1-.6-2.1-.8-3.2a2.1,2.1,0,0,1,1.2-2.3,2.1,2.1,0,0,1,2.6.8,7.8,7.8,0,0,1,1.1,2,20.5,20.5,0,0,1,1.1,2.5c.5-1.2.9-2,1.2-2.9s.6-2.2,1-3.2C584.1,121,584.7,120.8,587.9,121.5Z" transform="translate(-258.8 -21.5)"/><path class="cls-3" d="M434.5,44.6a56.8,56.8,0,0,1-3.8,14.7c-.1-2.5-.4-5,.4-7.5a6.7,6.7,0,0,0-.3-3.1,3.8,3.8,0,0,1,.8-3.1C432.3,44.4,433.4,44.6,434.5,44.6Z" transform="translate(-258.8 -21.5)"/><path class="cls-3" d="M430.5,59.9l-3.7,14.5a36.4,36.4,0,0,1,1-12.3A2.8,2.8,0,0,1,430.5,59.9Z" transform="translate(-258.8 -21.5)"/><path class="cls-3" d="M422.9,46.5v3.7c-.1,3.2-.3,3.3-3.8,4l-.2-.2c-.5-3.4.7-6.1,3.8-7.7Z" transform="translate(-258.8 -21.5)"/><path class="cls-15" d="M587.2,132.9c.9-2.7,2.3-5.2,2.6-8,.7-1.1,1.5-2.2,2.2-3.4a15.9,15.9,0,0,1,3.8-.2c1.7.1,2.7,1.5,2.9,3.2a6.4,6.4,0,0,1-1.5,5,43.7,43.7,0,0,1-4.4,4.2,1.6,1.6,0,0,0-.5,1.7,2.1,2.1,0,0,0,2,1.7,3.7,3.7,0,0,0,1.8-.5c2.9-1.8,5.6-3.7,5.2-7.7a14.9,14.9,0,0,1,.7-4.7c.1-.6,1.2-1.5,1.6-1.4s3.1-.1,4.7-.2a5,5,0,0,1,2.7.5,2.1,2.1,0,0,1,1,1.5,2.2,2.2,0,0,1-.8,1.5,12.8,12.8,0,0,1-2.7,1.1,3.5,3.5,0,0,0-2.5,3.6c0,1.6-.1,3.2-.1,4.8s0,1.9-.1,2.9a2.9,2.9,0,0,1-1.7,2.6c-1.3.4-2.1-.3-2.8-1.3s-.5-.3-.7-.4c-5.6,4.2-7.2,4.3-12.3.9l-1.4-3.5C586.5,135.4,585.9,134.1,587.2,132.9Z" transform="translate(-258.8 -21.5)"/><path class="cls-2" d="M422.7,46.3c-1.3,2.6-2.6,5.1-3.8,7.7s-3.6,3.5-4.4,5.6,1.2,4.4,2,6.6c1.8,5.6,4,11.1,6,16.7l.3.9a3.2,3.2,0,0,1-1.4,3.7,3,3,0,0,1-3.8-1l-2.3-3.7-5.1-18.7a1.6,1.6,0,0,0-1.8-1.2c-1.4.1-2.4.7-2.5,1.7a18.5,18.5,0,0,0-.1,2.3c.1,3.5.3,7,.4,10.5,0,1.4.1,2.9,0,4.3-.5,3.3-2.3,4.1-5.4,2.6l-.7-.6c0-7.1-.1-14.3.1-21.4.4-9.1,1-18.1,1.5-27.2a12.8,12.8,0,0,1,.1-1.9,2.5,2.5,0,0,1,1.8-2c8.4-3,14.2-.1,17.8,6.4.4.8.8,1.7,1.3,2.5s-.1.5.1.6C422.8,42.6,422.8,44.5,422.7,46.3Z" transform="translate(-258.8 -21.5)"/><path class="cls-28" d="M795.4,129a6.7,6.7,0,0,1-2.8,6.2c-.4.4-1.3,0-1.5-.6-.6-2.2.3-4,1.2-5.9s1.7-1.7,2.2-1.2A5.2,5.2,0,0,1,795.4,129Z" transform="translate(-258.8 -21.5)"/><path class="cls-29" d="M784.9,137.7v-7.8h1.8c-.1,2.3-.1,4.5-.2,6.8Z" transform="translate(-258.8 -21.5)"/><path class="cls-6" d="M643.4,121.6c1,1.5,1.3,2.9.3,4.5s-1.4.5-2.2.5a.8.8,0,0,1-.5-.2c.3,1,2-.4,2.5.9a6.1,6.1,0,0,1,3.6,4.7,7.5,7.5,0,0,1-1.6,5.8,12.2,12.2,0,0,1-3.1,2.9c-2.9,2-5,1.7-7.6-.9a2.7,2.7,0,0,1-.6-1.2c-5.3,3.6-5.5,3.6-10.4,1.7-.1-.3-.1-.6-.2-.9s-.5-1.3-1.2-1.7h.1c-.7-.9,0-2.2-.9-3a12,12,0,0,1,3-9.5,5,5,0,0,1,3.6-2.1,4.2,4.2,0,0,1,3.9,2,2.3,2.3,0,0,1,0,2.9h0c-.5.6-.4,1.4-.8,2h-.1c-.8.7-.3,2.2-2.2,3.3a11.2,11.2,0,0,1,10.3.6c-1.5-1.3-4.1-1.4-4.2-4h0a1.3,1.3,0,0,1-.1-1.9,27.5,27.5,0,0,1,1.4-3C637.9,122.4,640.1,120.8,643.4,121.6Z" transform="translate(-258.8 -21.5)"/><path class="cls-30" d="M635.1,130c1.2,2.1,3.3,2.2,5.4,2.5s1.8,1.4.7,2.7-1.6,1.2-2.6.1-3.5-1.4-5.1-2.4-1.5.2-2.1.6-1.6,1.6-2.5,2.3a1.5,1.5,0,0,1-2-.6,2.4,2.4,0,0,1,.4-1.7c1.2-1.2,2.6-2.3,3.9-3.4.2,1,.6,1.7,1.7,1.7A1.9,1.9,0,0,0,635.1,130Z" transform="translate(-258.8 -21.5)"/><path class="cls-30" d="M632.1,128.1v-2.9C633.3,126.6,633.3,126.6,632.1,128.1Z" transform="translate(-258.8 -21.5)"/><path class="cls-8" d="M621.6,134.8c1.1.8,1,1.9.9,3A2.7,2.7,0,0,1,621.6,134.8Z" transform="translate(-258.8 -21.5)"/><path class="cls-8" d="M622.4,137.7l1.2,1.7Z" transform="translate(-258.8 -21.5)"/><path class="cls-30" d="M635,128.1V130C634.1,129.4,634,128.7,635,128.1Z" transform="translate(-258.8 -21.5)"/><path class="cls-30" d="M631.3,130a16.7,16.7,0,0,1,.8-2A16.7,16.7,0,0,0,631.3,130Z" transform="translate(-258.8 -21.5)"/><path class="cls-27" d="M261.7,133.8c-.1-1.6-.1-3.2-.1-4.8s.1-.9.1-1.4a30.7,30.7,0,0,1,11.9-21.7c2.9-2.3,5.3-2.6,7.9.3s2.2,5.5-.4,8-3.8,2-4.7-1.2c-.1-.5.4-1,.3-1.6a11.2,11.2,0,0,1-.5,1.3,76.6,76.6,0,0,0-7,14.4h0a7.7,7.7,0,0,0,0,5.4v.3l.2.2c1.2,2.2,2.7,2.9,4.3,1.7a17.3,17.3,0,0,0,2.4-2.3,12.6,12.6,0,0,1,2-2,3.5,3.5,0,0,1,4,.2,3.3,3.3,0,0,1,1.1,3.4c-1.2,5.1-7,9.3-12.1,8.7a9.6,9.6,0,0,1-8.1-5.8A26.8,26.8,0,0,1,261.7,133.8Z" transform="translate(-258.8 -21.5)"/><path class="cls-15" d="M415.4,134.6c0-.9-.1-1.8-.1-2.6,2.7-6.2,4.9-7,9.7-9a1.4,1.4,0,0,0,.1-.9c-1.2-2.9-1.7-3.1-4-1.5l-2.6,2c-1.6,1.1-1.9.9-3.2-1.2,1-1,1.9-2.1,3-3.1a16.4,16.4,0,0,1,2.6-2c2.7-1.6,5.3-1,7.1,1.6a21.2,21.2,0,0,1,1.1,2.1,33,33,0,0,1,1.8,13.6,4.1,4.1,0,0,1-2.6,3.7,12.3,12.3,0,0,0-2.5,1.4c-2.8,1.8-5.4,1.6-7.8-.7A30.4,30.4,0,0,1,415.4,134.6Z" transform="translate(-258.8 -21.5)"/><path class="cls-3" d="M277.1,111.7a3.1,3.1,0,0,0-.1,1,1.6,1.6,0,0,0,.9,1.9,2,2,0,0,0,2.6-.5,6.4,6.4,0,0,0,1.6-5.8,4.1,4.1,0,0,0-5.5-3,15.5,15.5,0,0,0-4.1,2.5,30.8,30.8,0,0,0-9,13.9l-1.8,5.9c.1-2.8.2-5.6.5-8.4a2.1,2.1,0,0,1,.8-1.6c2.2-1.5,2.4-3.9,3-6.2.1-.5.4-1.4.8-1.4,3-.3,3.8-3.6,6.1-4.9s.8-1.9.2-2.9H276c2.1-.1,4.1.1,5.1,2.4a2.9,2.9,0,0,0,1.4,1.3,3.6,3.6,0,0,1,2.1,3.4c.1,1.8,0,3.5-1.8,4.5a5.8,5.8,0,0,0-1.3,1.4,4.6,4.6,0,0,1-4.3,2.4,3.8,3.8,0,0,0-3.9,2.9c-.6,2.8-2.5,4.6-4.1,6.7.3-6,2.9-10.9,6.8-15.3A.7.7,0,0,1,277.1,111.7Z" transform="translate(-258.8 -21.5)"/><path class="cls-3" d="M269.2,132.4a5.5,5.5,0,0,1,0-5.4Z" transform="translate(-258.8 -21.5)"/><path class="cls-3" d="M466.2,60.8,462,48.3c-.4-1.2-.6-2.4-.9-3.6,2-.1,3.5,1.1,5.1,2.1s1.5.2,1.7-.8-.2-2.5,1.1-3.4a111.4,111.4,0,0,1-1.2,19.1C466.7,62.4,466.6,61.4,466.2,60.8Z" transform="translate(-258.8 -21.5)"/><path class="cls-3" d="M461.2,44.7l-3.9-10.6c3.4.3,3.9.7,4,3.4S461.2,42.3,461.2,44.7Z" transform="translate(-258.8 -21.5)"/><path class="cls-3" d="M455.5,33h-1.8C454.2,32,454.8,32.1,455.5,33Z" transform="translate(-258.8 -21.5)"/><path class="cls-3" d="M457.4,34.1l-1.3-.9Z" transform="translate(-258.8 -21.5)"/><path class="cls-31" d="M643.5,127.3h-2.4c-.2,0-.4-.4-.5-.6s.4-.5.7-.5h2.4A5,5,0,0,0,643.5,127.3Z" transform="translate(-258.8 -21.5)"/><polygon class="cls-3" points="178.5 93.2 178.7 92.8 178.9 92.9 178.5 93.2"/><polygon class="cls-3" points="176.6 93.2 176.2 92.9 176.4 92.8 176.6 93.2"/><path class="cls-3" d="M310.6,114.6l.2-.4-.2.4Z" transform="translate(-258.8 -21.5)"/><path class="cls-3" d="M263.4,114.7c-.6.2-1,.5-1,.4a3.6,3.6,0,0,1-.7-1c-.1-.1.3-.4.3-.4Z" transform="translate(-258.8 -21.5)"/><path class="cls-32" d="M714.9,79.3c2.4-1.4,4.8-1.8,7.3,0a18.5,18.5,0,0,1,.4,2.3c.1,3-.8,4.3-3.6,5.3a11.7,11.7,0,0,1-3.6.8,3.1,3.1,0,0,1-3.1-4.5A33,33,0,0,1,714.9,79.3Z" transform="translate(-258.8 -21.5)"/><path class="cls-33" d="M608.5,26.6a8.9,8.9,0,0,1-1.7.8,1.7,1.7,0,0,1-1.6-1.9,1.4,1.4,0,0,1,1.7-1.2C607.9,24.4,608.6,25.2,608.5,26.6Z" transform="translate(-258.8 -21.5)"/><path class="cls-34" d="M642.4,28.4a1.8,1.8,0,0,1-2-1.6,1.6,1.6,0,0,1,1.5-1.6,2.1,2.1,0,0,1,2.2,1.3A1.7,1.7,0,0,1,642.4,28.4Z" transform="translate(-258.8 -21.5)"/><path class="cls-35" d="M587.2,132.9l-.3,3.9-1.6-1.8c.3-1.4.7-2.8,1-4.2h.5A15.5,15.5,0,0,1,587.2,132.9Z" transform="translate(-258.8 -21.5)"/><path class="cls-36" d="M466.2,60.8l1.6.9a10.9,10.9,0,0,1,.1,1.8l-.7.3A3.7,3.7,0,0,1,466.2,60.8Z" transform="translate(-258.8 -21.5)"/><path class="cls-3" d="M487.2,59.9l.3-19.2c0-2.1,1.2-2.4,2.8-1.8a5.9,5.9,0,0,1,1.7,1c3,3,5.3,6.5,5.7,10.8.7,7.5.5,15-1.9,22.3a32.8,32.8,0,0,1-2.8,6,4.8,4.8,0,0,1-2.1,1.9c-3.4,1.3-4,1.6-3.9-2.3V59.9Z" transform="translate(-258.8 -21.5)"/><path class="cls-9" d="M518.7,48.6c4,2,5.8,5.8,7.7,9.5a59.9,59.9,0,0,1-.1,18.9l-1.2,3.1a18.5,18.5,0,0,1-6.5,8.1c-3.5,2.7-7.2,2.3-10.2-1a12,12,0,0,1-2.6-4,4.5,4.5,0,0,1,.3-4.5,3.1,3.1,0,0,1,5.3-.2c.4.6.7,1.4,1.1,2.1s1.8,1.4,3.1.2a11.1,11.1,0,0,0,3-5.4,32.5,32.5,0,0,0,.9-12.8,18.9,18.9,0,0,0-.5-2.3,8.9,8.9,0,0,0-4.5-5.9c-3.9-2.2-4.8-4.6-4-8.8a21.9,21.9,0,0,1,6-11.2,9.9,9.9,0,0,1,3.2-2.1,3.2,3.2,0,0,1,3.8,2A5.6,5.6,0,0,1,523,39a1.6,1.6,0,0,1-2.4.6c-1.1-.7-1.8-.4-2.3.6s-1.5,3.5-2.1,5.3a3,3,0,0,0,.4,2.3C517,48.3,518,48.4,518.7,48.6Z" transform="translate(-258.8 -21.5)"/><path class="cls-37" d="M492.2,125.5c.9-1.2,1.7-2.6,2.7-3.8s1.3-1.6,2.4-1.2.8,1.6.6,2.5-.5,2.4-.8,3.7C494.5,127,494.5,127,492.2,125.5Z" transform="translate(-258.8 -21.5)"/><path class="cls-38" d="M493.4,132.8c1-.1,2-.2,2.3.9a3.4,3.4,0,0,1-.4,3.6c-.6.7-2.7.7-2.8-.1-.4-2.6-2.9-2.9-4.2-4.4a2,2,0,0,1,.9-.9.6.6,0,0,1,.8.1C491.1,132.7,492.3,132.2,493.4,132.8Z" transform="translate(-258.8 -21.5)"/><path class="cls-39" d="M474.6,127.7c-.2-.2-.7-.4-.6-.5a6.7,6.7,0,0,1,3-4.5.8.8,0,0,1,.8.2c.2.2.4.6.3.8A5.7,5.7,0,0,1,474.6,127.7Z" transform="translate(-258.8 -21.5)"/><path class="cls-40" d="M493.4,132.8c-1.2.1-2.4.3-3.3-.8Z" transform="translate(-258.8 -21.5)"/><path class="cls-40" d="M489.2,131.9l-.9.9C488.3,132.2,487.9,131.3,489.2,131.9Z" transform="translate(-258.8 -21.5)"/><path class="cls-41" d="M298.1,126.1a13.2,13.2,0,0,1-2.9,8.4c-.4.4-1.1.9-1.6.8a2,2,0,0,1-1.2-1.3c-.7-3.5.3-6.8,2-9.9a2.9,2.9,0,0,1,1.6-1,1.2,1.2,0,0,1,1.8.7,3,3,0,0,1,.2,1A5.7,5.7,0,0,1,298.1,126.1Z" transform="translate(-258.8 -21.5)"/><path class="cls-42" d="M586.4,76.9c-4.1-8.4-3.1-25.5,2.1-35.6a4.8,4.8,0,0,1,3.2,3.7,1.4,1.4,0,0,1,.1.9c-.1,10.2-.1,20.5-4.6,30C587.1,76.2,586.8,76.4,586.4,76.9Z" transform="translate(-258.8 -21.5)"/><path class="cls-43" d="M669.7,136.8c.4-.4.7-1,1.2-1.3s1.9-.8,2.8-1.2a1.2,1.2,0,0,1,.5.8c.2,1.7-1.4,1.7-2.4,2.3a2.2,2.2,0,0,1-1.4.1C670.2,137.5,670,137.2,669.7,136.8Z" transform="translate(-258.8 -21.5)"/><path class="cls-44" d="M761.3,127.4a3.3,3.3,0,0,1,2.2,2.8,5.6,5.6,0,0,1-1.8,4.7,1.6,1.6,0,0,1-2.1-.3c-1.3-1.7-.9-5.5.8-7A1.3,1.3,0,0,1,761.3,127.4Z" transform="translate(-258.8 -21.5)"/><path class="cls-45" d="M441.1,45.5c0,5.7.1,11.4.1,17.1,0,2.2-.2,2.4-2.4,2.8l-4.1.7c-.1-.4-.4-.8-.3-1,1.9-6.5,3.9-13,5.8-19.6Q440.7,44.9,441.1,45.5Z" transform="translate(-258.8 -21.5)"/><path class="cls-46" d="M441.1,45.5h-.9l.5-1.5Z" transform="translate(-258.8 -21.5)"/><path class="cls-47" d="M551.2,120.6c-.5,2.6-.8,5.2-1.5,7.6a11.2,11.2,0,0,1-2.5,4,8.2,8.2,0,0,1-3.5,2.3c-3.6,1.1-6.5-1.1-6.4-4.9a22.2,22.2,0,0,1,5.1-14.1c1.5-1.7,5.1-2.5,7-1.5a2.4,2.4,0,0,1,1.1,1.5A44.6,44.6,0,0,1,551.2,120.6Z" transform="translate(-258.8 -21.5)"/><path class="cls-48" d="M594.7,126.9c-.2.3-.3.7-.6,1.1s-.5.3-.7.4-.4-.6-.3-.8a3.4,3.4,0,0,1,.6-1.2c.1-.2.4-.3.7-.4Z" transform="translate(-258.8 -21.5)"/><path class="cls-49" d="M405.7,47.1V38c0-2.1.8-2.9,2.9-2.8a8.7,8.7,0,0,1,8.3,7.2,6.7,6.7,0,0,1-.8,3.7,95.2,95.2,0,0,1-6,8.6c-.9,1.2-2.4,2-3.6,3-1.6-1.4-.5-3.3-.7-4.9a54.2,54.2,0,0,1,0-5.7Z" transform="translate(-258.8 -21.5)"/><path class="cls-50" d="M277.1,111.7H276a4.1,4.1,0,0,1,.7-1.1c.2-.1.7.1,1,.1Z" transform="translate(-258.8 -21.5)"/><path class="cls-51" d="M421.1,133.1a4.6,4.6,0,0,1,3-3.8,1.1,1.1,0,0,1,1.2.2,1.2,1.2,0,0,1,.3,1.2,4.1,4.1,0,0,1-3.1,3.2C422.1,134,421.5,133.3,421.1,133.1Z" transform="translate(-258.8 -21.5)"/></svg>